<?xml version="1.0" encoding="UTF-8"?>
<svg version="1.1" xmlns="http://www.w3.org/2000/svg" width="887" height="887">
<path d="M0 0 C292.71 0 585.42 0 887 0 C887 292.71 887 585.42 887 887 C594.29 887 301.58 887 0 887 C0 594.29 0 301.58 0 0 Z " fill="#020202" transform="translate(0,0)"/>
<path d="M0 0 C0 0.66 0 1.32 0 2 C-3.465 3.485 -3.465 3.485 -7 5 C0.92 5 8.84 5 17 5 C17 5.99 17 6.98 17 8 C8.68719532 10.52480296 0.40877666 11.99653337 -8.1875 13.1875 C-9.42564453 13.36474609 -10.66378906 13.54199219 -11.93945312 13.72460938 C-14.9588125 14.15594643 -17.97891556 14.58094738 -21 15 C-20.4016333 14.98952637 -19.8032666 14.97905273 -19.18676758 14.96826172 C1.30543292 14.65732657 1.30543292 14.65732657 11.1484375 16.48828125 C15.73355731 17.31109042 20.35866713 17.64655181 25 18 C25 18.66 25 19.32 25 20 C21.79282822 21.29456387 18.58406097 22.58512709 15.375 23.875 C14.01955078 24.42220703 14.01955078 24.42220703 12.63671875 24.98046875 C8.12815356 26.79047667 3.636363 28.53669606 -1 30 C-1 30.66 -1 31.32 -1 32 C-0.39671875 32.13277344 0.2065625 32.26554687 0.828125 32.40234375 C1.62734375 32.57894531 2.4265625 32.75554687 3.25 32.9375 C4.03890625 33.11152344 4.8278125 33.28554688 5.640625 33.46484375 C7.76878703 33.947556 9.88532842 34.46163178 12 35 C12 35.66 12 36.32 12 37 C7.59099498 37.82927069 3.33396993 38.18231714 -1.1484375 38.31640625 C-1.80582916 38.33718735 -2.46322083 38.35796844 -3.14053345 38.37937927 C-5.21859362 38.44420753 -7.29676856 38.50344564 -9.375 38.5625 C-10.79298011 38.60574888 -12.21094907 38.64936509 -13.62890625 38.69335938 C-17.0858188 38.79981918 -20.54285706 38.90126984 -24 39 C-22.6847937 39.08109009 -22.6847937 39.08109009 -21.34301758 39.16381836 C-20.18439209 39.24253174 -19.0257666 39.32124512 -17.83203125 39.40234375 C-16.68710205 39.47702881 -15.54217285 39.55171387 -14.36254883 39.62866211 C-9.89057449 40.12251769 -6.18066561 41.370249 -2 43 C-3 46 -3 46 -5.23535156 47.16821289 C-8.0460385 48.01385139 -10.30716834 48.26827482 -13.234375 48.30859375 C-14.78475464 48.34351929 -14.78475464 48.34351929 -16.36645508 48.37915039 C-18.04130981 48.40803345 -18.04130981 48.40803345 -19.75 48.4375 C-32.26937985 48.76219517 -44.64890022 49.75789162 -57.10644531 50.98413086 C-57.78758896 51.05050751 -58.4687326 51.11688416 -59.17051697 51.18527222 C-61.02004509 51.36669521 -62.86905328 51.55339673 -64.71801758 51.74047852 C-67.82896585 51.98647554 -70.88102659 52.0470822 -74 52 C-74.03738281 52.680625 -74.07476563 53.36125 -74.11328125 54.0625 C-74.84836475 64.90137832 -76.91620205 75.40520562 -79.38671875 85.96484375 C-81.21258229 93.82318395 -82.8482042 101.71620665 -84.4375 109.625 C-84.59029419 110.38401611 -84.74308838 111.14303223 -84.9005127 111.92504883 C-87.53566953 125.08088533 -89.68303775 138.26364647 -91.50048828 151.55834961 C-91.86933319 154.09970184 -92.26238661 156.62961167 -92.68310547 159.16235352 C-94.81582392 172.04365693 -96.28280827 184.95231129 -97.625 197.9375 C-97.94911119 201.05007676 -98.2746833 204.1624794 -98.60360718 207.27455139 C-98.80581429 209.18963543 -99.00519709 211.10502047 -99.20132446 213.02073669 C-99.29166962 213.88006302 -99.38201477 214.73938934 -99.47509766 215.62475586 C-99.55265289 216.37575058 -99.63020813 217.1267453 -99.71011353 217.90049744 C-99.99832145 219.98784309 -100.44998813 221.96739197 -101 224 C-101.66 224 -102.32 224 -103 224 C-104.65 220.37 -106.3 216.74 -108 213 C-108.45925112 215.12480184 -108.91734588 217.24985362 -109.375 219.375 C-109.78685547 221.28345703 -109.78685547 221.28345703 -110.20703125 223.23046875 C-111.03080442 227.14643481 -111.77725514 231.07111244 -112.47265625 235.01171875 C-113 237 -113 237 -115 240 C-115.34933594 238.87980469 -115.69867187 237.75960937 -116.05859375 236.60546875 C-116.51821405 235.13280778 -116.9778503 233.66015179 -117.4375 232.1875 C-117.66759766 231.44951172 -117.89769531 230.71152344 -118.13476562 229.95117188 C-119.0687184 226.95981589 -120.00899104 223.97302688 -121 221 C-122.98 225.62 -124.96 230.24 -127 235 C-128.74325447 232.3851183 -129.41587957 230.9946567 -130.125 228.0625 C-130.29257812 227.39347656 -130.46015625 226.72445312 -130.6328125 226.03515625 C-131 224 -131 224 -131 220 C-131.66 220 -132.32 220 -133 220 C-133.93256984 217.20229047 -134.12860315 215.49758952 -134.1328125 212.60546875 C-134.13474609 211.73817139 -134.13667969 210.87087402 -134.13867188 209.97729492 C-134.13416016 209.0566626 -134.12964844 208.13603027 -134.125 207.1875 C-134.12306641 206.25075439 -134.12113281 205.31400879 -134.11914062 204.34887695 C-134.07295235 196.86316809 -133.70166844 189.45522715 -133 182 C-134.04053128 188.82911792 -135.02148186 195.60103248 -135.4375 202.5 C-135.76782744 207.07564673 -136.53457635 210.14107603 -139 214 C-139.33 214 -139.66 214 -140 214 C-141.69357554 209.56442495 -142.26621837 205.85585528 -142.30078125 201.1171875 C-142.30638062 200.47013351 -142.31197998 199.82307953 -142.31774902 199.15641785 C-142.32963607 197.06237337 -142.32338272 194.9690437 -142.3125 192.875 C-142.31067719 192.15359833 -142.30885437 191.43219666 -142.30697632 190.68893433 C-142.26090293 179.85598595 -141.48616406 169.47474396 -139.49609375 158.82128906 C-138.91956231 155.54255021 -138.44015928 152.25643754 -137.96875 148.9609375 C-133.59652357 118.45986027 -128.36781175 87.93173524 -121 58 C-124.48119953 58.59280476 -127.95947884 59.20134612 -131.4375 59.8125 C-132.41138672 59.97814453 -133.38527344 60.14378906 -134.38867188 60.31445312 C-138.96373766 61.12541796 -143.29026641 62.01892987 -147.65625 63.625 C-152.19371045 65.23253705 -156.28778392 65.35070239 -161.0625 65.1875 C-161.83271484 65.17396484 -162.60292969 65.16042969 -163.39648438 65.14648438 C-165.26463674 65.11167408 -167.13242044 65.05789282 -169 65 C-167.53403275 61.0570536 -165.62691725 59.98165412 -161.875 58.25 C-160.96492187 57.82203125 -160.05484375 57.3940625 -159.1171875 56.953125 C-158.41851563 56.63859375 -157.71984375 56.3240625 -157 56 C-159.14526099 55.80606125 -161.29123677 55.62001324 -163.4375 55.4375 C-164.63246094 55.33308594 -165.82742188 55.22867188 -167.05859375 55.12109375 C-168.51458984 55.06115234 -168.51458984 55.06115234 -170 55 C-170.33 55.33 -170.66 55.66 -171 56 C-170.99577235 57.87496218 -170.98447701 59.75022873 -170.93383789 61.62451172 C-170.5055602 78.46062319 -176.34945274 89.52645912 -187.81933594 101.72338867 C-189.20138106 103.16008697 -190.60036754 104.58042975 -192 106 C-192.71929688 106.7321875 -193.43859375 107.464375 -194.1796875 108.21875 C-201.98525682 115.6414046 -216.8078027 127 -228 127 C-224.6948528 131.77006592 -221.38213147 135.7276063 -216.86303711 139.36962891 C-215.02864282 140.97493425 -213.52761608 142.63229045 -211.96484375 144.5 C-207.26302086 149.94821316 -202.12070277 154.95137147 -197 160 C-189.65588946 167.24074169 -182.62051161 174.59686969 -176.0625 182.5625 C-173.95290975 185.03945953 -171.73594119 187.15264281 -169.25 189.25 C-164.04297249 193.68000984 -159.30033136 198.68627089 -155 204 C-155 204.66 -155 205.32 -155 206 C-156.98 205.67 -158.96 205.34 -161 205 C-161 205.33 -161 205.66 -161 206 C-158.2960662 208.69631709 -155.56407086 211.35708005 -152.796875 213.98828125 C-149.59250642 217.11432082 -147.2496226 219.56800516 -146 224 C-148.31 223.67 -150.62 223.34 -153 223 C-153 224.75962137 -151.72213765 226.05718892 -150.77734375 227.4921875 C-150.32166016 228.19730469 -149.86597656 228.90242187 -149.39648438 229.62890625 C-148.42622923 231.12260561 -147.44968032 232.61223612 -146.46679688 234.09765625 C-146.01240234 234.80535156 -145.55800781 235.51304687 -145.08984375 236.2421875 C-144.66566162 236.8904248 -144.24147949 237.53866211 -143.80444336 238.20654297 C-143 240 -143 240 -144 243 C-144.67804688 242.56429687 -145.35609375 242.12859375 -146.0546875 241.6796875 C-152.30803167 237.67824012 -158.61210331 233.78285422 -165 230 C-164.65066406 230.51949219 -164.30132813 231.03898438 -163.94140625 231.57421875 C-159.42179262 238.50087873 -159.42179262 238.50087873 -159 243 C-163.10359657 241.59769182 -165.93718869 239.65504926 -169.25 236.875 C-170.67505859 235.68197266 -170.67505859 235.68197266 -172.12890625 234.46484375 C-176.1325941 231.02766412 -180.08989601 227.54323004 -184 224 C-181.84106143 226.71866338 -179.66176506 229.38655421 -177.375 232 C-175.24652778 234.68859649 -174.04478715 236.7706579 -173 240 C-183.18607493 236.51084726 -191.67920715 227.72454209 -198.95336914 220.02392578 C-201.76616262 217.07530821 -204.479379 215.01901428 -208 213 C-217.50238745 205.21647444 -226.2854358 196.3144404 -234.24609375 186.97265625 C-237.0238189 183.84848877 -240.03038519 180.95965853 -243.0078125 178.02734375 C-245 176 -245 176 -247.0625 173.375 C-249.45102625 170.44712911 -252.18820038 168.14265253 -255.05078125 165.6875 C-258.64995155 162.57158503 -261.8370436 159.2160423 -264.875 155.5625 C-267.53013008 152.39570423 -270.4415191 149.82001196 -273.6796875 147.26171875 C-274.11539063 146.84535156 -274.55109375 146.42898438 -275 146 C-275 145.34 -275 144.68 -275 144 C-275.66 144 -276.32 144 -277 144 C-277.04970947 144.72630615 -277.09941895 145.4526123 -277.15063477 146.20092773 C-277.70335145 153.57422737 -278.68671157 160.77863249 -279.9375 168.0625 C-281.22425865 175.72432961 -282.28824595 183.32145611 -282.9375 191.0625 C-283.69859079 199.82300133 -286.02031615 207.75469162 -289 216 C-291.6855594 213.3144406 -292.06049974 210.62378672 -293 207 C-296.00442075 213.45950461 -297.97912498 220.17826451 -300 227 C-300.66 227 -301.32 227 -302 227 C-302.99 224.525 -302.99 224.525 -304 222 C-304.12375 223.134375 -304.2475 224.26875 -304.375 225.4375 C-304.684375 227.2009375 -304.684375 227.2009375 -305 229 C-305.66 229.33 -306.32 229.66 -307 230 C-307 229.01 -307 228.02 -307 227 C-307.99 227 -308.98 227 -310 227 C-310.2475 225.783125 -310.495 224.56625 -310.75 223.3125 C-312.47278485 212.92135738 -312.47278485 212.92135738 -317 204 C-317.99 206.31 -318.98 208.62 -320 211 C-320.66 211 -321.32 211 -322 211 C-325.25145117 195.41045288 -323.91419487 181.249307 -321.0625 165.8125 C-320.78075491 164.22871909 -320.50015055 162.64473481 -320.22070312 161.06054688 C-318.07208202 148.98265442 -318.07208202 148.98265442 -317 145 C-319.31 145 -321.62 145 -324 145 C-324.6875 142.75 -324.6875 142.75 -325 140 C-323.5625 137.6875 -323.5625 137.6875 -322 136 C-322.99 136 -323.98 136 -325 136 C-325.6526131 132.9760106 -326.12312391 130.09951073 -326 127 C-323.20640129 123.79557795 -320.02620654 122.27143364 -316 121 C-315.01 121 -314.02 121 -313 121 C-313.02562012 119.70707031 -313.05124023 118.41414063 -313.07763672 117.08203125 C-313.07465301 112.19065856 -312.51136809 107.51307352 -311.7578125 102.6875 C-311.62937958 101.83373779 -311.50094666 100.97997559 -311.36862183 100.1003418 C-311.09767871 98.30827968 -310.82355909 96.51669517 -310.54638672 94.72558594 C-310.12627512 92.00824765 -309.71661758 89.28948935 -309.30859375 86.5703125 C-309.04228034 84.81761498 -308.77537296 83.06500758 -308.5078125 81.3125 C-308.3868924 80.51223389 -308.26597229 79.71196777 -308.14138794 78.88745117 C-307.41417011 74.21342997 -306.51785462 69.61249234 -305.44628906 65.00489807 C-304.77811855 62.0032252 -304.32318067 58.97872598 -303.875 55.9375 C-303.70742188 54.81214844 -303.53984375 53.68679688 -303.3671875 52.52734375 C-303.24601562 51.69332031 -303.12484375 50.85929687 -303 50 C-304.423125 50.2475 -304.423125 50.2475 -305.875 50.5 C-311.87764526 51.35577427 -318.13446635 51.69898216 -324 50 C-324 49.01 -324 48.02 -324 47 C-319.05 44.525 -319.05 44.525 -314 42 C-316.81197457 39.18802543 -319.84011245 39.30097443 -323.625 38.875 C-324.33140625 38.78863281 -325.0378125 38.70226562 -325.765625 38.61328125 C-327.50950141 38.40118817 -329.2546484 38.19959009 -331 38 C-327.90081787 34.80690326 -324.81446409 32.32184771 -321 30 C-320.34 30 -319.68 30 -319 30 C-318.690625 29.360625 -318.38125 28.72125 -318.0625 28.0625 C-317 26 -317 26 -316 25 C-316.74765625 24.95101563 -317.4953125 24.90203125 -318.265625 24.8515625 C-319.25046875 24.77679688 -320.2353125 24.70203125 -321.25 24.625 C-322.22453125 24.55539062 -323.1990625 24.48578125 -324.203125 24.4140625 C-326.89633189 24.01534751 -328.66963279 23.36492937 -331 22 C-331 21.01 -331 20.02 -331 19 C-330.29875 18.74605469 -329.5975 18.49210937 -328.875 18.23046875 C-327.92625 17.88628906 -326.9775 17.54210937 -326 17.1875 C-325.071875 16.85105469 -324.14375 16.51460938 -323.1875 16.16796875 C-321.50536546 15.55159837 -319.82466906 14.93006776 -318.16064453 14.26635742 C-313.14066612 12.28892245 -308.15854944 11.00386421 -302.875 9.9375 C-301.74578125 9.69676758 -301.74578125 9.69676758 -300.59375 9.45117188 C-298.06827031 8.92887583 -295.53833706 8.45580257 -293 8 C-291.48937988 7.72530884 -291.48937988 7.72530884 -289.94824219 7.44506836 C-280.62850403 5.92282633 -271.47714591 5.65985732 -262.05029297 5.68432617 C-259.50314852 5.68749608 -256.95715914 5.66389215 -254.41015625 5.63867188 C-244.49478108 5.60062413 -235.62438028 6.44244003 -226 9 C-224.80947021 9.2897168 -223.61894043 9.57943359 -222.39233398 9.87792969 C-204.2514892 14.37281434 -187.6169619 23.90760538 -177.26953125 39.80859375 C-176.09332891 41.83889993 -175.01623389 43.88565555 -174 46 C-172.85073734 45.04578192 -171.70569459 44.08647955 -170.5625 43.125 C-169.92441406 42.59132813 -169.28632812 42.05765625 -168.62890625 41.5078125 C-166.89194996 40.0777243 -166.89194996 40.0777243 -166 38 C-168.97 37.34 -171.94 36.68 -175 36 C-175 35.67 -175 35.34 -175 35 C-174.21238281 35.04640625 -173.42476562 35.0928125 -172.61328125 35.140625 C-164.02127474 35.42533054 -157.04932835 33.95098126 -149 31 C-149.89074219 31.15984375 -150.78148437 31.3196875 -151.69921875 31.484375 C-160.86786477 32.91663686 -169.14071218 32.23952522 -177 27 C-177 26.34 -177 25.68 -177 25 C-176.37738281 24.90203125 -175.75476563 24.8040625 -175.11328125 24.703125 C-170.21849432 23.91122084 -165.34095168 23.07782788 -160.4765625 22.1171875 C-150.90681299 20.22854634 -141.34537863 18.56147595 -131.6875 17.1875 C-121.08624351 15.67645071 -110.5519169 13.9014366 -100.01104736 12.02127075 C-75.84784136 7.71384189 -51.66042656 3.80692349 -27.25 1.1875 C-26.11473877 1.06342773 -24.97947754 0.93935547 -23.80981445 0.81152344 C-15.85577885 0.01217027 -7.99072945 -0.12847073 0 0 Z " fill="#FBFBFB" transform="translate(752,280)"/>
<path d="M0 0 C0.66 0 1.32 0 2 0 C3.38137335 1.67465856 4.68146716 3.41689132 5.9375 5.1875 C6.62714844 6.15042969 7.31679688 7.11335938 8.02734375 8.10546875 C9.78763717 10.68839434 11.42582385 13.30070736 13 16 C13.33 13.36 13.66 10.72 14 8 C17.45195767 9.4258086 19.1014256 11.09746334 21.25 14.125 C22.03117187 15.21167969 22.03117187 15.21167969 22.828125 16.3203125 C23.21484375 16.87460937 23.6015625 17.42890625 24 18 C24.33 15.69 24.66 13.38 25 11 C29.23673463 13.97736162 31.29603011 16.83805033 33.625 21.4375 C36.00343312 26.1062306 36.00343312 26.1062306 38.640625 30.62890625 C40.38048193 33.6636567 40.92687984 36.46499297 41.578125 39.8671875 C41.97489872 42.10863907 41.97489872 42.10863907 42.875 44.625 C43.15495039 49.9440574 37.69681882 56.07458976 34.875 60.375 C26.52110828 73.26480062 19.0610871 86.65300518 11.59716797 100.07104492 C6.52144395 109.15546056 1.23176791 118.1026981 -4.09912109 127.0390625 C-10.03751294 137.01268159 -15.75668339 147.09977696 -21.43554688 157.22265625 C-24.57909792 162.80334238 -27.76925201 168.35750878 -30.95605469 173.91357422 C-33.20830574 177.84510745 -35.43670885 181.78596141 -37.6171875 185.7578125 C-39.47742002 189.11546623 -41.45691955 192.32906296 -43.625 195.5 C-46.96464186 200.43713533 -50.21650924 205.42223611 -53.4375 210.4375 C-56.60270308 215.35624389 -59.81576379 220.21908397 -63.1875 225 C-73.40610952 239.61371039 -82.71014244 254.89057952 -92.19458008 269.98681641 C-97.51931173 278.4521688 -97.51931173 278.4521688 -100 282 C-100.33 282 -100.66 282 -101 282 C-101.0772418 277.44273372 -100.99296412 273.46442924 -100 269 C-100.60328125 270.03640625 -101.2065625 271.0728125 -101.828125 272.140625 C-102.63509888 273.51060391 -103.44240829 274.88038521 -104.25 276.25 C-104.64574219 276.93191406 -105.04148437 277.61382813 -105.44921875 278.31640625 C-107.63847315 282.01301614 -109.75536165 285.11256954 -113 288 C-113 285.03 -113 282.06 -113 279 C-113.44730469 279.51949219 -113.89460938 280.03898437 -114.35546875 280.57421875 C-121.43493761 288.74051439 -121.43493761 288.74051439 -125 292 C-125.66 292 -126.32 292 -127 292 C-126.80083984 290.89205078 -126.80083984 290.89205078 -126.59765625 289.76171875 C-125.39479661 282.85186083 -124.52315859 275.9938043 -124 269 C-124.268125 269.60585938 -124.53625 270.21171875 -124.8125 270.8359375 C-129.72047333 281.32995943 -137.26969399 289.48843966 -145 298 C-145.66 297.67 -146.32 297.34 -147 297 C-132.95350691 268.218085 -132.95350691 268.218085 -123.23828125 255.94140625 C-117.71272794 248.68007703 -113.28004593 241.05000135 -109.125 232.9375 C-108.62742187 231.97650391 -108.12984375 231.01550781 -107.6171875 230.02539062 C-106.40674333 227.68597448 -105.20112365 225.34421116 -104 223 C-107.18813746 227.74413596 -110.33401093 232.49551145 -113.3125 237.375 C-118.228654 245.12530043 -123.64035377 252.43507452 -131 258 C-128.04872532 234.85825884 -107.12270362 209.68738489 -94.75830078 190.48217773 C-90.24410518 183.45518975 -86.04759901 176.30442353 -82 169 C-82.4218457 168.32759277 -82.84369141 167.65518555 -83.27832031 166.96240234 C-93.37020752 150.83345293 -102.85816768 134.52947114 -111.74316406 117.69775391 C-112.96752201 115.37958821 -114.19493107 113.06303157 -115.42529297 110.74804688 C-116.60150425 108.5334837 -117.77037612 106.31499903 -118.93017578 104.09179688 C-122.29997687 97.74558778 -126.01957381 91.97383464 -130.38964844 86.26635742 C-132 84 -132 84 -133 81 C-134.22976562 81.01740234 -134.22976562 81.01740234 -135.484375 81.03515625 C-136.56203125 81.04417969 -137.6396875 81.05320312 -138.75 81.0625 C-140.35101563 81.07990234 -140.35101563 81.07990234 -141.984375 81.09765625 C-144.53368501 81.01510087 -146.57933591 80.74617558 -149 80 C-148.34 78.35 -147.68 76.7 -147 75 C-148.17175781 75.02320313 -149.34351563 75.04640625 -150.55078125 75.0703125 C-159.25464016 75.18890883 -167.48739927 75.10002485 -176 73 C-176 72.34 -176 71.68 -176 71 C-175.19369141 70.91959473 -174.38738281 70.83918945 -173.55664062 70.75634766 C-169.87045463 70.38529418 -166.18525087 70.0052243 -162.5 69.625 C-161.2315625 69.49867188 -159.963125 69.37234375 -158.65625 69.2421875 C-152.26773603 68.57671729 -146.17331446 67.79275546 -140 66 C-143.3 65.34 -146.6 64.68 -150 64 C-150 63.01 -150 62.02 -150 61 C-147.6464689 60.20640264 -145.29221117 59.41508217 -142.9375 58.625 C-142.28072266 58.40328125 -141.62394531 58.1815625 -140.94726562 57.953125 C-136.65983043 56.51693981 -132.3561677 55.21224953 -128 54 C-128.99 53.505 -128.99 53.505 -130 53 C-130 52.34 -130 51.68 -130 51 C-126.6277935 49.36915673 -123.2517641 47.74638276 -119.875 46.125 C-118.92367187 45.66480469 -117.97234375 45.20460938 -116.9921875 44.73046875 C-113.2310757 42.92826935 -109.5911542 41.19431458 -105.625 39.890625 C-102.66029016 38.8847413 -100.62268533 37.50031128 -98.125 35.625 C-93.89985939 32.55857219 -89.73255777 30.19099897 -85 28 C-85.28875 29.19238281 -85.5775 30.38476562 -85.875 31.61328125 C-86.25017698 33.17964512 -86.62516726 34.74605372 -87 36.3125 C-87.28617188 37.49102539 -87.28617188 37.49102539 -87.578125 38.69335938 C-87.84882813 39.8293457 -87.84882813 39.8293457 -88.125 40.98828125 C-88.29257813 41.68477783 -88.46015625 42.38127441 -88.6328125 43.09887695 C-89.09481884 45.16821738 -89.09481884 45.16821738 -89 48 C-88.37351562 47.3503125 -87.74703125 46.700625 -87.1015625 46.03125 C-86.28429687 45.1959375 -85.46703125 44.360625 -84.625 43.5 C-83.81289062 42.6646875 -83.00078125 41.829375 -82.1640625 40.96875 C-80 39 -80 39 -78 39 C-80 45 -80 45 -80.80078125 46.98046875 C-83.51493801 54.04242165 -84.44534831 61.50768019 -82.09228516 68.82128906 C-80.83059779 71.63414841 -79.45408291 74.34425522 -78 77.0625 C-76.97935908 79.07494369 -75.96247782 81.08929823 -74.94921875 83.10546875 C-74.44567871 84.09724121 -73.94213867 85.08901367 -73.42333984 86.11083984 C-71.36401465 90.29095207 -69.57122309 94.56164188 -67.8125 98.875 C-64.17344667 107.73015508 -60.1522594 116.37522714 -56 125 C-55.34 125 -54.68 125 -54 125 C-53.51273437 124.05125 -53.02546875 123.1025 -52.5234375 122.125 C-47.86939152 113.15591476 -42.96483941 104.3543263 -37.875 95.625 C-37.30185059 94.64015625 -36.72870117 93.6553125 -36.13818359 92.640625 C-31.60468213 84.90814808 -26.95159805 77.24391935 -21.83203125 69.8828125 C-19.38994974 66.04004884 -17.53989594 62.02819414 -15.6875 57.875 C-15.29941162 57.00842773 -14.91132324 56.14185547 -14.51147461 55.24902344 C-7.96554344 40.35666108 -2.39809753 25.25469664 -0.875 9 C-0.74544922 7.69482422 -0.74544922 7.69482422 -0.61328125 6.36328125 C-0.40355393 4.24270501 -0.20102158 2.12141921 0 0 Z " fill="#FBFBFB" transform="translate(291,258)"/>
<path d="M0 0 C1.2546152 3.7638456 0.49664142 4.936102 -0.9375 8.5625 C-2.47441265 12.18335653 -2.47441265 12.18335653 -3 16 C-2.0409375 14.515 -2.0409375 14.515 -1.0625 13 C-0.381875 12.01 0.29875 11.02 1 10 C1.33 10 1.66 10 2 10 C2.13462646 11.10396118 2.13462646 11.10396118 2.27197266 12.23022461 C4.31053571 28.72278362 6.75637726 45.05857161 9.89306641 61.37866211 C12.84726562 76.93256971 14.41415382 92.55326013 15.85986328 108.30395508 C16.12816031 111.22187052 16.40173681 114.13925992 16.67578125 117.05664062 C16.84926886 118.92705456 17.0224572 120.79749628 17.1953125 122.66796875 C17.27653351 123.53254196 17.35775452 124.39711517 17.44143677 125.28788757 C17.79809105 129.20608444 18.10337234 133.06030957 18 137 C18.61875 137.268125 19.2375 137.53625 19.875 137.8125 C22 139 22 139 24 142 C21.525 142.99 21.525 142.99 19 144 C19.5281124 148.37480014 20.06137266 152.74893498 20.59912109 157.12255859 C20.78082709 158.60611571 20.96119951 160.08983686 21.14013672 161.57373047 C22.31418224 171.55603534 22.31418224 171.55603534 24.125 181.4375 C25.14524903 186.20100755 25.23003972 190.76893301 25.125 195.625 C25.11597656 196.43839844 25.10695313 197.25179687 25.09765625 198.08984375 C25.07447761 200.06002841 25.03862632 202.03005765 25 204 C22.16763009 201.35645475 20.78155733 199.56311466 19 196 C18.67 200.29 18.34 204.58 18 209 C17.34 208.67 16.68 208.34 16 208 C15.98018066 208.59538574 15.96036133 209.19077148 15.93994141 209.80419922 C15.84483874 212.49492153 15.73510158 215.18485148 15.625 217.875 C15.5940625 218.81214844 15.563125 219.74929688 15.53125 220.71484375 C15.47324219 222.05869141 15.47324219 222.05869141 15.4140625 223.4296875 C15.3826416 224.25710449 15.3512207 225.08452148 15.31884766 225.93701172 C15 228 15 228 13 230 C10.69 225.38 8.38 220.76 6 216 C5.01 218.64 4.02 221.28 3 224 C2.34 224 1.68 224 1 224 C-0.65 219.38 -2.3 214.76 -4 210 C-4.66 213.96 -5.32 217.92 -6 222 C-6.66 222 -7.32 222 -8 222 C-15.34478762 202.30971829 -20.93440056 181.1230183 -21 160 C-21.79374023 160.2333606 -21.79374023 160.2333606 -22.60351562 160.47143555 C-40.2130344 165.55900326 -57.8895632 168.43286659 -76 171 C-78.33334203 171.33327245 -80.6666778 171.66658874 -83 172 C-83.38027344 173.258125 -83.76054687 174.51625 -84.15234375 175.8125 C-86.05812772 181.51537196 -88.74286668 186.7023445 -91.5625 192 C-92.09117676 193.00095703 -92.61985352 194.00191406 -93.16455078 195.03320312 C-96.46963799 201.24498323 -99.84679126 207.41200268 -103.375 213.5 C-103.75470947 214.16257812 -104.13441895 214.82515625 -104.52563477 215.5078125 C-107.21702637 220.05842374 -110.28299546 224.22334881 -114 228 C-114.33 228 -114.66 228 -115 228 C-115.33 225.69 -115.66 223.38 -116 221 C-117.81556788 222.78864842 -119.62751622 224.58071621 -121.4375 226.375 C-121.95376953 226.88289062 -122.47003906 227.39078125 -123.00195312 227.9140625 C-125.857133 230.68568936 -125.857133 230.68568936 -128 234 C-128.66 234 -129.32 234 -130 234 C-129.85892253 232.54119891 -129.71197585 231.08296449 -129.5625 229.625 C-129.48128906 228.81289063 -129.40007812 228.00078125 -129.31640625 227.1640625 C-129 225 -129 225 -128 223 C-128.66 223 -129.32 223 -130 223 C-130.23460937 223.71542969 -130.46921875 224.43085938 -130.7109375 225.16796875 C-132.22371559 228.49149637 -134.13808667 230.64795001 -136.625 233.3125 C-137.44226563 234.19550781 -138.25953125 235.07851563 -139.1015625 235.98828125 C-139.72804688 236.65214844 -140.35453125 237.31601562 -141 238 C-142.72436488 233.91108687 -141.09373328 230.6279384 -139.5625 226.75 C-139.2931665 226.04907227 -139.02383301 225.34814453 -138.74633789 224.62597656 C-136.46008764 218.83181562 -133.76184495 213.29027862 -130.91040039 207.75683594 C-127.93081999 201.96364837 -125.38875578 196.06376467 -123 190 C-123.27674561 190.4940332 -123.55349121 190.98806641 -123.83862305 191.49707031 C-125.11098037 193.75421366 -126.39902461 196.00202166 -127.6875 198.25 C-128.12255859 199.02730469 -128.55761719 199.80460938 -129.00585938 200.60546875 C-131.51901147 204.96159905 -133.73145436 208.13892076 -138 211 C-138.69037641 202.90603952 -136.53108747 197.83823877 -132.8203125 190.7265625 C-132.29235077 189.68100189 -131.76438904 188.63544128 -131.22042847 187.55819702 C-129.53870957 184.23829235 -127.8321401 180.9318917 -126.125 177.625 C-124.98406471 175.37972485 -123.84472451 173.1336384 -122.70703125 170.88671875 C-120.62420277 166.78757872 -118.53712139 162.69080784 -116.43017578 158.60400391 C-116.00825958 157.78509674 -115.58634338 156.96618958 -115.15164185 156.12246704 C-114 154 -114 154 -112 151 C-112.69867188 151.02320313 -113.39734375 151.04640625 -114.1171875 151.0703125 C-115.02726562 151.08835937 -115.93734375 151.10640625 -116.875 151.125 C-117.77992188 151.14820313 -118.68484375 151.17140625 -119.6171875 151.1953125 C-122 151 -122 151 -124 149 C-124 147.125 -124 147.125 -123 145 C-119.14990734 141.56613357 -116.16251061 140.82115811 -111.10327148 139.99511719 C-106.65963419 138.91629516 -106.65963419 138.91629516 -103.22756958 136.07507324 C-101.81391937 133.48433156 -100.71751822 130.8962033 -99.66015625 128.140625 C-98.75672751 126.04060943 -97.84913254 123.94238265 -96.93798828 121.84570312 C-96.23237762 120.17374878 -96.23237762 120.17374878 -95.51251221 118.46801758 C-93.15823935 113.06993907 -90.51189013 107.82146949 -87.85798264 102.56645203 C-86.61459888 100.10214848 -85.38208679 97.63246778 -84.14899635 95.16300201 C-83.21042035 93.2841174 -82.27011961 91.40610527 -81.3293457 89.52832031 C-79.7480484 86.37144468 -78.17041829 83.21275222 -76.59369755 80.05358887 C-59.43840121 45.6900281 -59.43840121 45.6900281 -50.1875 29.5 C-46.75994912 23.48043196 -43.69427148 17.39043286 -41 11 C-39.046875 11.8359375 -39.046875 11.8359375 -37 13 C-36.25 15.625 -36.25 15.625 -36 18 C-35.443125 17.030625 -34.88625 16.06125 -34.3125 15.0625 C-31.5952931 11.46403681 -31.15314601 11.77267833 -27 11 C-25.81835443 10.02084299 -24.67546017 8.99407673 -23.5625 7.9375 C-20.91251726 5.50253779 -20.30840335 5.033644 -16.5625 4.625 C-15.716875 4.74875 -14.87125 4.8725 -14 5 C-14 6.32 -14 7.64 -14 9 C-9.38 6.03 -4.76 3.06 0 0 Z " fill="#FAFAFA" transform="translate(396,284)"/>
<path d="M0 0 C0 0.66 0 1.32 0 2 C-3.465 3.485 -3.465 3.485 -7 5 C0.92 5 8.84 5 17 5 C17 5.99 17 6.98 17 8 C8.68719532 10.52480296 0.40877666 11.99653337 -8.1875 13.1875 C-9.42564453 13.36474609 -10.66378906 13.54199219 -11.93945312 13.72460938 C-14.9588125 14.15594643 -17.97891556 14.58094738 -21 15 C-20.10244995 14.98428955 -20.10244995 14.98428955 -19.18676758 14.96826172 C1.30543292 14.65732657 1.30543292 14.65732657 11.1484375 16.48828125 C15.73355731 17.31109042 20.35866713 17.64655181 25 18 C25 18.66 25 19.32 25 20 C21.79282822 21.29456387 18.58406097 22.58512709 15.375 23.875 C14.01955078 24.42220703 14.01955078 24.42220703 12.63671875 24.98046875 C8.12815356 26.79047667 3.636363 28.53669606 -1 30 C-1 30.66 -1 31.32 -1 32 C-0.39671875 32.13277344 0.2065625 32.26554687 0.828125 32.40234375 C1.62734375 32.57894531 2.4265625 32.75554687 3.25 32.9375 C4.03890625 33.11152344 4.8278125 33.28554688 5.640625 33.46484375 C7.76878703 33.947556 9.88532842 34.46163178 12 35 C12 35.66 12 36.32 12 37 C7.59099498 37.82927069 3.33396993 38.18231714 -1.1484375 38.31640625 C-1.80582916 38.33718735 -2.46322083 38.35796844 -3.14053345 38.37937927 C-5.21859362 38.44420753 -7.29676856 38.50344564 -9.375 38.5625 C-10.79298011 38.60574888 -12.21094907 38.64936509 -13.62890625 38.69335938 C-17.0858188 38.79981918 -20.54285706 38.90126984 -24 39 C-23.1231958 39.05406006 -22.2463916 39.10812012 -21.34301758 39.16381836 C-20.18439209 39.24253174 -19.0257666 39.32124512 -17.83203125 39.40234375 C-16.68710205 39.47702881 -15.54217285 39.55171387 -14.36254883 39.62866211 C-9.89057449 40.12251769 -6.18066561 41.370249 -2 43 C-3 46 -3 46 -5.23535156 47.16821289 C-8.0460385 48.01385139 -10.30716834 48.26827482 -13.234375 48.30859375 C-14.78475464 48.34351929 -14.78475464 48.34351929 -16.36645508 48.37915039 C-18.04130981 48.40803345 -18.04130981 48.40803345 -19.75 48.4375 C-32.26937985 48.76219517 -44.64890022 49.75789162 -57.10644531 50.98413086 C-57.78758896 51.05050751 -58.4687326 51.11688416 -59.17051697 51.18527222 C-61.02004509 51.36669521 -62.86905328 51.55339673 -64.71801758 51.74047852 C-67.82896585 51.98647554 -70.88102659 52.0470822 -74 52 C-74.03738281 52.680625 -74.07476563 53.36125 -74.11328125 54.0625 C-74.84836475 64.90137832 -76.91620205 75.40520562 -79.38671875 85.96484375 C-81.21258229 93.82318395 -82.8482042 101.71620665 -84.4375 109.625 C-84.59029419 110.38401611 -84.74308838 111.14303223 -84.9005127 111.92504883 C-87.53566953 125.08088533 -89.68303775 138.26364647 -91.50048828 151.55834961 C-91.86933319 154.09970184 -92.26238661 156.62961167 -92.68310547 159.16235352 C-94.81582392 172.04365693 -96.28280827 184.95231129 -97.625 197.9375 C-97.94911119 201.05007676 -98.2746833 204.1624794 -98.60360718 207.27455139 C-98.80581429 209.18963543 -99.00519709 211.10502047 -99.20132446 213.02073669 C-99.29166962 213.88006302 -99.38201477 214.73938934 -99.47509766 215.62475586 C-99.55265289 216.37575058 -99.63020813 217.1267453 -99.71011353 217.90049744 C-99.99832145 219.98784309 -100.44998813 221.96739197 -101 224 C-101.66 224 -102.32 224 -103 224 C-104.65 220.37 -106.3 216.74 -108 213 C-108.45925112 215.12480184 -108.91734588 217.24985362 -109.375 219.375 C-109.78685547 221.28345703 -109.78685547 221.28345703 -110.20703125 223.23046875 C-111.03080442 227.14643481 -111.77725514 231.07111244 -112.47265625 235.01171875 C-113 237 -113 237 -115 240 C-115.34933594 238.87980469 -115.69867187 237.75960937 -116.05859375 236.60546875 C-116.51821405 235.13280778 -116.9778503 233.66015179 -117.4375 232.1875 C-117.66759766 231.44951172 -117.89769531 230.71152344 -118.13476562 229.95117188 C-119.0687184 226.95981589 -120.00899104 223.97302688 -121 221 C-122.98 225.62 -124.96 230.24 -127 235 C-128.74325447 232.3851183 -129.41587957 230.9946567 -130.125 228.0625 C-130.29257812 227.39347656 -130.46015625 226.72445312 -130.6328125 226.03515625 C-131 224 -131 224 -131 220 C-131.66 220 -132.32 220 -133 220 C-133.93256984 217.20229047 -134.12860315 215.49758952 -134.1328125 212.60546875 C-134.13474609 211.73817139 -134.13667969 210.87087402 -134.13867188 209.97729492 C-134.13416016 209.0566626 -134.12964844 208.13603027 -134.125 207.1875 C-134.12306641 206.25075439 -134.12113281 205.31400879 -134.11914062 204.34887695 C-134.07295235 196.86316809 -133.70166844 189.45522715 -133 182 C-134.04053128 188.82911792 -135.02148186 195.60103248 -135.4375 202.5 C-135.76782744 207.07564673 -136.53457635 210.14107603 -139 214 C-139.33 214 -139.66 214 -140 214 C-141.69357554 209.56442495 -142.26621837 205.85585528 -142.30078125 201.1171875 C-142.3091803 200.14660652 -142.3091803 200.14660652 -142.31774902 199.15641785 C-142.32963607 197.06237337 -142.32338272 194.9690437 -142.3125 192.875 C-142.31067719 192.15359833 -142.30885437 191.43219666 -142.30697632 190.68893433 C-142.26090293 179.85598595 -141.48616406 169.47474396 -139.49609375 158.82128906 C-138.91956231 155.54255021 -138.44015928 152.25643754 -137.96875 148.9609375 C-133.59652357 118.45986027 -128.36781175 87.93173524 -121 58 C-124.48119953 58.59280476 -127.95947884 59.20134612 -131.4375 59.8125 C-132.41138672 59.97814453 -133.38527344 60.14378906 -134.38867188 60.31445312 C-138.96373766 61.12541796 -143.29026641 62.01892987 -147.65625 63.625 C-152.19371045 65.23253705 -156.28778392 65.35070239 -161.0625 65.1875 C-161.83271484 65.17396484 -162.60292969 65.16042969 -163.39648438 65.14648438 C-165.26463674 65.11167408 -167.13242044 65.05789282 -169 65 C-167.53403275 61.0570536 -165.62691725 59.98165412 -161.875 58.25 C-160.96492187 57.82203125 -160.05484375 57.3940625 -159.1171875 56.953125 C-158.41851563 56.63859375 -157.71984375 56.3240625 -157 56 C-158.33804688 55.96132813 -158.33804688 55.96132813 -159.703125 55.921875 C-161.45882812 55.83679688 -161.45882812 55.83679688 -163.25 55.75 C-164.41015625 55.70359375 -165.5703125 55.6571875 -166.765625 55.609375 C-170.50291099 54.90524865 -171.70702647 53.97257773 -174 51 C-174.6875 48.625 -174.6875 48.625 -174 46 C-172.3145707 44.26751557 -170.54750253 42.80101708 -168.62890625 41.33203125 C-166.86833905 40.07775666 -166.86833905 40.07775666 -166 38 C-168.97 37.34 -171.94 36.68 -175 36 C-175 35.67 -175 35.34 -175 35 C-174.21238281 35.04640625 -173.42476562 35.0928125 -172.61328125 35.140625 C-164.02127474 35.42533054 -157.04932835 33.95098126 -149 31 C-149.89074219 31.15984375 -150.78148437 31.3196875 -151.69921875 31.484375 C-160.86786477 32.91663686 -169.14071218 32.23952522 -177 27 C-177 26.34 -177 25.68 -177 25 C-176.06607422 24.85304688 -176.06607422 24.85304688 -175.11328125 24.703125 C-170.21849432 23.91122084 -165.34095168 23.07782788 -160.4765625 22.1171875 C-150.90681299 20.22854634 -141.34537863 18.56147595 -131.6875 17.1875 C-121.08624351 15.67645071 -110.5519169 13.9014366 -100.01104736 12.02127075 C-75.84784136 7.71384189 -51.66042656 3.80692349 -27.25 1.1875 C-26.11473877 1.06342773 -24.97947754 0.93935547 -23.80981445 0.81152344 C-15.85577885 0.01217027 -7.99072945 -0.12847073 0 0 Z " fill="#FAFAFA" transform="translate(752,280)"/>
<path d="M0 0 C5.11251464 4.58025284 8.97713686 9.96277332 9.75 16.875 C9.79125 18.174375 9.8325 19.47375 9.875 20.8125 C1.97542938 21.09240605 -5.3722493 20.32787186 -13.125 18.8125 C-13.3725 17.719375 -13.62 16.62625 -13.875 15.5 C-15.16069781 11.70719145 -15.71213933 10.67406036 -19.125 8.8125 C-22.59825181 7.6547494 -25.48567448 7.74383348 -29.125 7.8125 C-29.455 9.4625 -29.785 11.1125 -30.125 12.8125 C-27.20432954 15.53845909 -24.44782453 17.18197884 -20.75 18.5625 C-16.1112702 20.32466012 -11.75723398 22.43766311 -7.375 24.75 C-6.43648193 25.23581543 -6.43648193 25.23581543 -5.47900391 25.73144531 C3.42968279 30.49694199 8.51116479 36.16663067 11.875 45.8125 C12.52622363 51.01471668 12.54236877 55.42642639 10.25 60.1875 C4.0654941 67.02300653 -0.41606735 69.30959755 -9.57421875 69.99609375 C-22.66552426 70.34546925 -37.12580186 66.54474321 -47.125 57.8125 C-52.586254 51.69398348 -53.90296506 45.95996146 -56.125 37.8125 C-48.535 37.8125 -40.945 37.8125 -33.125 37.8125 C-31.64 42.7625 -31.64 42.7625 -30.125 47.8125 C-24.68092064 51.89555952 -21.65441694 52.12342462 -15.125 51.8125 C-12.89533253 49.99046419 -12.89533253 49.99046419 -12.8125 47.375 C-13.1906971 44.2737838 -13.75756566 43.76207589 -16.125 41.8125 C-18.4536018 40.64184584 -18.4536018 40.64184584 -21.09765625 39.6484375 C-22.07565186 39.25317871 -23.05364746 38.85791992 -24.0612793 38.45068359 C-25.09293213 38.03383301 -26.12458496 37.61698242 -27.1875 37.1875 C-37.53143235 32.8398072 -46.22149723 28.7663604 -51.6875 18.4375 C-53.6367498 13.5220005 -54.56774032 10.12538384 -54.125 4.8125 C-51.67156613 -0.78132923 -48.26827644 -4.82632373 -43.125 -8.1875 C-29.45435241 -13.25296317 -11.34162953 -7.93914067 0 0 Z " fill="#F7F7F7" transform="translate(683.125,567.1875)"/>
<path d="M0 0 C0.07646293 7.22242401 0.12877249 14.44474246 0.16479492 21.66748047 C0.17982224 24.12129619 0.2002498 26.57508533 0.22631836 29.02880859 C0.2629682 32.56875192 0.27978755 36.10833814 0.29296875 39.6484375 C0.30845261 40.73426117 0.32393646 41.82008484 0.33988953 42.93881226 C0.34227468 53.88943026 -1.69652106 61.82822064 -9.40625 69.80078125 C-18.89187495 77.84356265 -31.06026986 79.3632594 -43.0625 79.4375 C-44.00416016 79.47037109 -44.94582031 79.50324219 -45.91601562 79.53710938 C-52.52661653 79.58771244 -56.91391585 78.30797469 -62 74 C-67.41150729 67.5916361 -68.3350882 60.1918425 -68.1875 52.0625 C-68.18105469 51.29123779 -68.17460937 50.51997559 -68.16796875 49.7253418 C-67.99978184 35.81444443 -67.46427757 21.9034551 -67 8 C-56.11 6.515 -56.11 6.515 -45 5 C-44.95101563 8.56296875 -44.90203125 12.1259375 -44.8515625 15.796875 C-44.79756158 19.24548565 -44.74025052 22.69402649 -44.68261719 26.14257812 C-44.64432095 28.54031174 -44.60946924 30.93810293 -44.578125 33.3359375 C-44.53248895 36.78145942 -44.4744913 40.22658472 -44.4140625 43.671875 C-44.40251129 44.74491882 -44.39096008 45.81796265 -44.37905884 46.92352295 C-44.35918915 47.92425842 -44.33931946 48.9249939 -44.31884766 49.95605469 C-44.30552399 50.83541687 -44.29220032 51.71477905 -44.2784729 52.62078857 C-43.97787805 55.18900513 -43.37785925 56.82143675 -42 59 C-38.52817697 60.73591152 -34.79591036 60.46571673 -31 60 C-26.91357943 57.91964044 -24.67811105 56.24444812 -23 52 C-22.6759401 49.57882314 -22.6759401 49.57882314 -22.68115234 46.95605469 C-22.66128265 45.95531921 -22.64141296 44.95458374 -22.62094116 43.92352295 C-22.60361435 42.31395721 -22.60361435 42.31395721 -22.5859375 40.671875 C-22.56657135 39.56773254 -22.5472052 38.46359009 -22.5272522 37.32598877 C-22.46749108 33.80073767 -22.42108436 30.27545385 -22.375 26.75 C-22.33681708 24.35936079 -22.29776517 21.96873529 -22.2578125 19.578125 C-22.16179233 13.71887174 -22.07673452 7.85953585 -22 2 C-19.13873357 1.04624452 -16.80150483 0.70309563 -13.8125 0.4375 C-12.91144531 0.35371094 -12.01039063 0.26992188 -11.08203125 0.18359375 C-7.37873085 -0.03700843 -3.70997117 -0.01118106 0 0 Z " fill="#FAFAFA" transform="translate(317,544)"/>
<path d="M0 0 C4.61348533 4.51836192 5.75021167 8.19758203 6.515625 14.484375 C3.41608212 15.51963749 0.31039039 16.53505067 -2.796875 17.546875 C-3.67794922 17.84142578 -4.55902344 18.13597656 -5.46679688 18.43945312 C-6.73813477 18.8503418 -6.73813477 18.8503418 -8.03515625 19.26953125 C-8.81544189 19.52613525 -9.59572754 19.78273926 -10.3996582 20.04711914 C-12.484375 20.484375 -12.484375 20.484375 -15.484375 19.484375 C-18.484375 15.15104167 -18.484375 15.15104167 -18.484375 12.484375 C-20.09006166 12.76755426 -21.69389547 13.06125291 -23.296875 13.359375 C-24.19019531 13.52179687 -25.08351562 13.68421875 -26.00390625 13.8515625 C-28.71165346 14.39625949 -28.71165346 14.39625949 -31.484375 16.484375 C-31.81777971 19.52632927 -31.81777971 19.52632927 -31.484375 22.484375 C-29.91934545 24.04940455 -28.3527661 23.62990811 -26.1796875 23.66015625 C-3.72557786 24.18731492 -3.72557786 24.18731492 3.20703125 29.87109375 C7.49569266 34.52630741 9.03485183 40.03577172 8.8203125 46.28125 C7.627592 54.90553671 3.35176796 61.26465993 -3.484375 66.484375 C-15.17134284 74.05258766 -29.66476462 76.96642235 -43.484375 75.484375 C-47.44836017 74.31573345 -49.5288398 72.75725963 -52.171875 69.609375 C-52.75324219 68.93132812 -53.33460938 68.25328125 -53.93359375 67.5546875 C-56.83110733 63.68647037 -57.58530066 61.31389143 -57.484375 56.484375 C-54.2162318 55.31007426 -50.94444985 54.14626244 -47.671875 52.984375 C-46.74310547 52.65050781 -45.81433594 52.31664062 -44.85742188 51.97265625 C-43.96474609 51.65683594 -43.07207031 51.34101562 -42.15234375 51.015625 C-41.33016357 50.72236328 -40.5079834 50.42910156 -39.66088867 50.12695312 C-37.484375 49.484375 -37.484375 49.484375 -34.484375 49.484375 C-34.01 50.61875 -33.535625 51.753125 -33.046875 52.921875 C-31.84815417 56.24177666 -31.84815417 56.24177666 -30.484375 57.484375 C-25.66402114 57.52900791 -21.58962749 57.10331639 -17.359375 54.734375 C-15.24418455 52.61502656 -15.24418455 52.61502656 -15.171875 49.734375 C-15.3265625 48.620625 -15.3265625 48.620625 -15.484375 47.484375 C-18.4281334 45.8040161 -20.55475341 45.23745507 -23.93359375 45.2109375 C-25.20686523 45.18 -25.20686523 45.18 -26.50585938 45.1484375 C-28.26357773 45.12268338 -30.02142142 45.10428409 -31.77929688 45.09375 C-39.43612971 44.88602884 -45.37376934 42.93314967 -51.421875 38.171875 C-54.96803794 33.55111723 -55.71083531 29.25603016 -55.421875 23.546875 C-54.3453364 15.47283549 -49.87567486 10.14868427 -43.71484375 5.0859375 C-32.57474802 -2.91308045 -11.96440212 -9.25940686 0 0 Z " fill="#F8F8F8" transform="translate(233.484375,561.515625)"/>
<path d="M0 0 C12.29820133 1.1180183 12.29820133 1.1180183 17.25 1.93359375 C25.77617412 3.29450231 34.33083931 4.4313421 42.88671875 5.58789062 C44.12035156 5.75611328 45.35398437 5.92433594 46.625 6.09765625 C47.73101563 6.24726807 48.83703125 6.39687988 49.9765625 6.55102539 C52.66482542 6.95022722 55.33503506 7.46700701 58 8 C58 13.61 58 19.22 58 25 C46.24020993 24.28293963 34.657965 22.66243626 23 21 C23 24.3 23 27.6 23 31 C23.98097656 31.12117187 24.96195313 31.24234375 25.97265625 31.3671875 C35.32246779 32.52658279 44.66278044 33.7430666 54 35 C54 40.28 54 45.56 54 51 C49.77052989 50.52339777 45.54143312 50.04382378 41.3125 49.5625 C40.11431641 49.42779297 38.91613281 49.29308594 37.68164062 49.15429688 C36.52470703 49.02216797 35.36777344 48.89003906 34.17578125 48.75390625 C32.58117065 48.57323608 32.58117065 48.57323608 30.9543457 48.38891602 C28.28580371 48.03762378 25.63929671 47.52785934 23 47 C23 51.29 23 55.58 23 60 C24.06605469 59.97035156 25.13210938 59.94070313 26.23046875 59.91015625 C31.9795625 59.91142285 37.61998176 60.6961969 43.3125 61.4375 C44.93768555 61.63956055 44.93768555 61.63956055 46.59570312 61.84570312 C54.59441807 62.86480602 54.59441807 62.86480602 58 64 C58 69.61 58 75.22 58 81 C45.65333468 80.55103035 33.74481716 79.01990367 21.5546875 77.03515625 C14.38773412 75.90330724 7.19212881 74.95895051 0 74 C0 49.58 0 25.16 0 0 Z " fill="#F7F7F7" transform="translate(563,545)"/>
<path d="M0 0 C6.36778167 -0.127601 12.7352293 -0.21468406 19.10400391 -0.2746582 C21.26688965 -0.29968039 23.42969189 -0.33370909 25.59228516 -0.37719727 C28.71537981 -0.43839207 31.83734913 -0.46633343 34.9609375 -0.48828125 C35.91551849 -0.51408768 36.87009949 -0.5398941 37.85360718 -0.56648254 C44.88689678 -0.56936905 50.08023501 1.18114306 56 5 C58.25390625 7.31640625 58.25390625 7.31640625 59.5625 9.5625 C60.24505859 10.67818359 60.24505859 10.67818359 60.94140625 11.81640625 C64.37832332 18.90584034 63.44052061 26.34419484 61.03125 33.60546875 C58.14465847 40.30804681 53.80341359 43.58809627 47.1484375 46.2734375 C43.49287169 47.50968339 40.32371959 48.12380892 36.453125 48.09765625 C35.69161133 48.09515869 34.93009766 48.09266113 34.14550781 48.09008789 C32.71223145 48.07643188 32.71223145 48.07643188 31.25 48.0625 C28.1975 48.041875 25.145 48.02125 22 48 C22 56.25 22 64.5 22 73 C11.11 73.495 11.11 73.495 0 74 C-0.89093577 49.27310571 -0.98533648 24.72501922 0 0 Z " fill="#FBFBFB" transform="translate(397,538)"/>
<path d="M0 0 C1.18045898 -0.04253906 2.36091797 -0.08507812 3.57714844 -0.12890625 C11.42987525 -0.1914244 16.44115281 1.15688511 22.3125 6.5 C25.59341177 10.43709413 26.9212511 13.41376431 27.3125 18.5 C27.37566406 19.26570312 27.43882812 20.03140625 27.50390625 20.8203125 C27.91765428 29.54906116 24.8120385 35.62629213 19.00390625 42.03125 C16.09385498 44.55822293 12.99371568 45.53554866 9.3125 46.5 C8.63445312 46.70367188 7.95640625 46.90734375 7.2578125 47.1171875 C0.29572185 48.97884544 -5.02109452 48.5 -12.6875 48.5 C-12.6875 57.41 -12.6875 66.32 -12.6875 75.5 C-20.2775 75.83 -27.8675 76.16 -35.6875 76.5 C-35.81067043 51.81117232 -35.52591755 27.17534213 -34.6875 2.5 C-23.147282 1.01093961 -11.63587991 0.20849534 0 0 Z " fill="#F9F9F9" transform="translate(362.6875,539.5)"/>
<path d="M0 0 C7.59 0 15.18 0 23 0 C23 18.48 23 36.96 23 56 C33.48623165 55.96040089 33.48623165 55.96040089 43.97241211 55.90991211 C45.26928955 55.90741455 46.56616699 55.90491699 47.90234375 55.90234375 C48.58816528 55.89722778 49.27398682 55.89211182 49.98059082 55.88684082 C51.65415231 55.88652946 53.3275958 55.93777163 55 56 C56 57 56 57 56.11352539 58.85766602 C56.10828857 59.64842529 56.10305176 60.43918457 56.09765625 61.25390625 C56.09443359 62.10791016 56.09121094 62.96191406 56.08789062 63.84179688 C56.07532227 65.18854492 56.07532227 65.18854492 56.0625 66.5625 C56.05798828 67.46419922 56.05347656 68.36589844 56.04882812 69.29492188 C56.03700225 71.53001314 56.0205222 73.76497437 56 76 C46.77463201 76.32432934 37.72645804 75.65356283 28.546875 74.79931641 C19.04457839 73.93328836 9.52870383 73.46449462 0 73 C-0.8637558 48.6072228 -1.0207704 24.38856052 0 0 Z " fill="#F6F6F6" transform="translate(467,539)"/>
<path d="M0 0 C17.10317861 -0.50689992 37.26379231 -1.04827961 50.67578125 11.36328125 C52.98057004 14.211973 53.19231128 16.41018944 53 20 C45.8941057 35.56529227 24.78677465 45.08513725 10 52 C9.34773438 52.30631348 8.69546875 52.61262695 8.0234375 52.92822266 C4.36023755 54.64395725 0.68595051 56.3337484 -3 58 C-4.39626408 54.16870817 -3.62724298 51.20687443 -2.78515625 47.28515625 C-2.50827252 45.9447009 -2.23158656 44.60420469 -1.95507812 43.26367188 C-1.51385828 41.17668986 -1.06858498 39.09068359 -0.6184082 37.00561523 C1.32578457 27.93017987 2.44088327 19.3325291 2 10 C0.35 11.32 -1.3 12.64 -3 14 C-2.80083984 13.11248047 -2.80083984 13.11248047 -2.59765625 12.20703125 C-2.42105469 11.41683594 -2.24445313 10.62664062 -2.0625 9.8125 C-1.88847656 9.03519531 -1.71445312 8.25789063 -1.53515625 7.45703125 C-0.99488667 4.97652348 -0.49105628 2.49067284 0 0 Z " fill="#060606" transform="translate(487,327)"/>
<path d="M0 0 C2.16659374 -0.02738672 4.33329175 -0.04656832 6.5 -0.0625 C8.30984375 -0.07990234 8.30984375 -0.07990234 10.15625 -0.09765625 C14.18741987 0.00476168 18.0102456 0.43949247 22 1 C22.89537298 25.39028491 23.00608796 49.61206285 22 74 C20.39594109 74.02792366 18.79172506 74.0467943 17.1875 74.0625 C15.84751953 74.07990234 15.84751953 74.07990234 14.48046875 74.09765625 C9.64170251 73.9618884 4.82079094 73.43825372 0 73 C0 60.79 0 48.58 0 36 C-0.66 36 -1.32 36 -2 36 C-1.67 35.01 -1.34 34.02 -1 33 C-0.8470353 30.48945095 -0.74304822 28.00111475 -0.68359375 25.48828125 C-0.66281265 24.76005661 -0.64203156 24.03183197 -0.62062073 23.28153992 C-0.55531254 20.95862125 -0.49632763 18.63559094 -0.4375 16.3125 C-0.39429695 14.73631665 -0.35068208 13.16014452 -0.30664062 11.58398438 C-0.1996504 7.72277025 -0.09833039 3.86144397 0 0 Z " fill="#FBFBFB" transform="translate(530,543)"/>
<path d="M0 0 C0.66 0 1.32 0 2 0 C3.69671804 10.87824902 5.28254587 21.76744516 6.6875 32.6875 C6.88436401 34.1725 6.88436401 34.1725 7.08520508 35.6875 C7.81953405 41.51091094 8.12693929 47.13056882 8 53 C3.07094305 53.85769012 -1.85866656 54.71210233 -6.78881836 55.56347656 C-8.46605796 55.85359018 -10.14314276 56.14460026 -11.82006836 56.43652344 C-14.22990462 56.85587346 -16.64027848 57.27200063 -19.05078125 57.6875 C-19.80087967 57.81874268 -20.55097809 57.94998535 -21.32380676 58.08520508 C-24.25761879 58.58830697 -27.01699745 59 -30 59 C-28.34270426 54.42016122 -26.02323292 50.34340385 -23.625 46.125 C-15.17157899 31.07107004 -6.9258425 15.82615764 0 0 Z " fill="#070707" transform="translate(362,360)"/>
<path d="M0 0 C13.7577955 -0.41690289 13.7577955 -0.41690289 18 3 C19.31421208 5.67316329 19.43923815 8.06794272 19 11 C16.87842611 13.99516314 16.2895908 14.77503 13 16 C8.57518419 16.4036858 4.46167208 16.22763633 0 16 C0 10.72 0 5.44 0 0 Z " fill="#141414" transform="translate(419,554)"/>
<path d="M0 0 C1.2077558 3.62326739 0.54311128 4.64146369 -1 8 C-0.01 8.33 0.98 8.66 2 9 C1.34 9 0.68 9 0 9 C0 10.98 0 12.96 0 15 C-0.99 15.33 -1.98 15.66 -3 16 C-4.18385249 17.98750244 -4.18385249 17.98750244 -5.1875 20.4375 C-9.66878409 29.85624679 -17.04213631 37.33894796 -24 45 C-24.66 44.67 -25.32 44.34 -26 44 C-18.44009743 28.50940945 -10.81602217 13.50085037 0 0 Z " fill="#EEEEEE" transform="translate(170,511)"/>
<path d="M0 0 C13.25421443 -0.36817262 13.25421443 -0.36817262 16.46875 1.21875 C18 3 18 3 18.171875 5.26171875 C18.03265625 6.06222656 17.8934375 6.86273437 17.75 7.6875 C17.62109375 8.49574219 17.4921875 9.30398438 17.359375 10.13671875 C17.24078125 10.75160156 17.1221875 11.36648438 17 12 C11.06818762 15.09485864 6.67959493 15.2745039 0 15 C0 10.05 0 5.1 0 0 Z " fill="#0B0B0B" transform="translate(350,557)"/>
<path d="M0 0 C2.08821241 0.73630611 4.17042964 1.48962846 6.25 2.25 C7.41015625 2.66765625 8.5703125 3.0853125 9.765625 3.515625 C12.98438073 4.99283174 14.78993775 6.26296427 17 9 C17.48563105 11.84441042 17.39307149 13.28755792 16 15.8125 C12.79619 17.71476219 9.57410681 17.50091648 6 17 C1.86898065 15.44112477 -0.86933852 13.92490273 -3 10 C-3.6875 6.75 -3.6875 6.75 -4 4 C-3.34 4 -2.68 4 -2 4 C-2 3.34 -2 2.68 -2 2 C-1.34 2 -0.68 2 0 2 C0 1.34 0 0.68 0 0 Z " fill="#0E0E0E" transform="translate(654,603)"/>
<path d="M0 0 C4.96169694 0.32535718 8.15754744 1.59504744 11.6875 5.125 C13.03562842 7.6714648 13.04931032 9.40827618 12.8125 12.25 C14.3903125 12.2190625 14.3903125 12.2190625 16 12.1875 C19.13954904 12.23896802 21.78133396 12.51517187 24.8125 13.25 C23.8225 13.58 22.8325 13.91 21.8125 14.25 C21.8125 15.57 21.8125 16.89 21.8125 18.25 C22.4725 18.58 23.1325 18.91 23.8125 19.25 C20.8125 20.25 20.8125 20.25 18.5 19.17578125 C17.613125 18.64339844 16.72625 18.11101563 15.8125 17.5625 C11.06628027 14.83326608 6.44532957 12.91994729 1.22265625 11.3046875 C-1.62570241 10.05824206 -3.22894022 8.65243898 -5.1875 6.25 C-4.87278466 1.73908015 -4.6175695 0.36216231 0 0 Z " fill="#0C0C0C" transform="translate(657.1875,573.75)"/>
<path d="M0 0 C0.5775 1.134375 1.155 2.26875 1.75 3.4375 C3.35492635 6.37310297 3.35492635 6.37310297 6.25 7.9375 C7.11625 7.9684375 7.11625 7.9684375 8 8 C7.34 8.66 6.68 9.32 6 10 C6 10.66 6 11.32 6 12 C3.04142591 12.05379226 0.08382279 12.09357093 -2.875 12.125 C-4.13763672 12.15013672 -4.13763672 12.15013672 -5.42578125 12.17578125 C-6.23144531 12.18222656 -7.03710938 12.18867187 -7.8671875 12.1953125 C-8.61081543 12.20578613 -9.35444336 12.21625977 -10.12060547 12.22705078 C-12 12 -12 12 -14 10 C-14.375 7.0625 -14.375 7.0625 -14 4 C-9.86045004 -0.13954996 -5.61029472 -0.10585462 0 0 Z " fill="#0B0B0B" transform="translate(215,574)"/>
<path d="M0 0 C0.12375 0.8971875 0.12375 0.8971875 0.25 1.8125 C1.20630014 4.60170874 2.62860019 5.34476293 5 7 C-0.03040931 15.72166529 -6.05395128 22.80273795 -13 30 C-14.27047556 26.18857331 -13.51450743 25.36095811 -11.796875 21.81640625 C-11.31089844 20.80642578 -10.82492188 19.79644531 -10.32421875 18.75585938 C-9.80472656 17.70205078 -9.28523437 16.64824219 -8.75 15.5625 C-8.24597656 14.51255859 -7.74195313 13.46261719 -7.22265625 12.38085938 C-5.08082343 7.97070754 -3.06669708 3.84801759 0 0 Z " fill="#EDEDED" transform="translate(174,486)"/>
<path d="M0 0 C1.32 0.99 2.64 1.98 4 3 C4.66 2.67 5.32 2.34 6 2 C5.42461386 6.21949834 3.98215101 9.05772669 1.6875 12.625 C1.09324219 13.56601562 0.49898438 14.50703125 -0.11328125 15.4765625 C-1.90265787 17.86980742 -3.5200626 19.3686063 -6 21 C-6.84057704 12.59422965 -4.11638645 7.24042974 0 0 Z " fill="#EBEBEB" transform="translate(264,474)"/>
<path d="M0 0 C0.66 0.66 1.32 1.32 2 2 C4.56916657 2.30599063 7.04758384 2.51087087 9.625 2.625 C10.68460938 2.68300781 10.68460938 2.68300781 11.765625 2.7421875 C13.50998524 2.83647724 15.25495691 2.91932891 17 3 C14.79062655 5.20937345 12.80140222 6.19844514 10 7.5625 C9.113125 7.99691406 8.22625 8.43132812 7.3125 8.87890625 C6.549375 9.24886719 5.78625 9.61882812 5 10 C4.01 10.495 4.01 10.495 3 11 C2.59270772 13.32156597 2.25561323 15.6568787 2 18 C1.67 18 1.34 18 1 18 C0.67 12.06 0.34 6.12 0 0 Z " fill="#090909" transform="translate(580,332)"/>
<path d="M0 0 C1.00262313 3.00786938 1.01478002 4.2627347 0.625 7.3125 C0.52574219 8.10140625 0.42648438 8.8903125 0.32421875 9.703125 C-0.06749936 12.47818827 -0.50488296 15.24149077 -1 18 C-2.65 17.01 -4.3 16.02 -6 15 C-7.32 15.99 -8.64 16.98 -10 18 C-8.70126608 14.45970129 -7.15122134 11.52988067 -5 8.4375 C-3.09937057 5.69584204 -1.42409849 3.01936265 0 0 Z M-11 18 C-11 18.99 -11 19.98 -11 21 C-13.5 23.1875 -13.5 23.1875 -16 25 C-14.70700306 22.11562221 -13.34058637 20.12780579 -11 18 Z " fill="#202020" transform="translate(167,526)"/>
<path d="M0 0 C0.33 0.66 0.66 1.32 1 2 C0.01368791 4.1837998 -1.02606523 6.22890847 -2.18359375 8.3203125 C-2.51794937 8.93897186 -2.85230499 9.55763123 -3.1967926 10.19503784 C-4.26956538 12.1758516 -5.35335806 14.15038993 -6.4375 16.125 C-7.16544576 17.46444607 -7.89266891 18.80428513 -8.61914062 20.14453125 C-10.40439827 23.43431117 -12.19956398 26.71850416 -14 30 C-14.33 29.34 -14.66 28.68 -15 28 C-16.32 28.33 -17.64 28.66 -19 29 C-18.46016479 28.31538696 -18.46016479 28.31538696 -17.90942383 27.61694336 C-13.71440568 22.17660315 -10.16048569 16.48344322 -6.6875 10.5625 C-5.63011587 8.77142075 -4.57158559 6.98101748 -3.51171875 5.19140625 C-3.05240967 4.40967041 -2.59310059 3.62793457 -2.11987305 2.82250977 C-1 1 -1 1 0 0 Z " fill="#1A1A1A" transform="translate(187,479)"/>
<path d="M0 0 C1.1341103 3.4023309 0.97162171 3.68979157 -0.51171875 6.73046875 C-0.85783203 7.45169922 -1.20394531 8.17292969 -1.56054688 8.91601562 C-1.93244141 9.66560547 -2.30433594 10.41519531 -2.6875 11.1875 C-3.21633789 12.28288086 -3.21633789 12.28288086 -3.75585938 13.40039062 C-6.12465561 18.28955141 -8.56382799 23.14415375 -11 28 C-11.33 27.01 -11.66 26.02 -12 25 C-12.99 24.67 -13.98 24.34 -15 24 C-14.195625 23.01 -13.39125 22.02 -12.5625 21 C-7.63435359 14.47641051 -3.90974258 7.15917309 0 0 Z " fill="#262626" transform="translate(274,470)"/>
<path d="M0 0 C3.68802044 1.22934015 4.72356973 2.93859378 7 6 C6.67 6.66 6.34 7.32 6 8 C5.01 7.34 4.02 6.68 3 6 C3.33 7.65 3.66 9.3 4 11 C-0.43458973 9.6062718 -2.87378374 7.39417765 -6 4 C-3.1875 1.9375 -3.1875 1.9375 0 0 Z " fill="#D0D0D0" transform="translate(546,485)"/>
<path d="M0 0 C-9.96573997 3.4124394 -18.36949506 6.06874952 -29 4 C-29 3.67 -29 3.34 -29 3 C-28.195625 2.87625 -27.39125 2.7525 -26.5625 2.625 C-25.716875 2.41875 -24.87125 2.2125 -24 2 C-23.67 1.34 -23.34 0.68 -23 0 C-22.13117187 0.01160156 -21.26234375 0.02320313 -20.3671875 0.03515625 C-19.21476563 0.04417969 -18.06234375 0.05320312 -16.875 0.0625 C-15.16957031 0.07990234 -15.16957031 0.07990234 -13.4296875 0.09765625 C-10.02491179 0.08496487 -10.02491179 0.08496487 -6.8203125 -0.56640625 C-4.1048002 -0.98388806 -2.56117343 -0.88656003 0 0 Z " fill="#2C2C2C" transform="translate(607,311)"/>
<path d="M0 0 C9.41002278 -0.18451025 9.41002278 -0.18451025 14 1 C13.01 1.33 12.02 1.66 11 2 C11 3.32 11 4.64 11 6 C11.66 6.33 12.32 6.66 13 7 C10 8 10 8 7.51953125 7.00390625 C6.62621094 6.52824219 5.73289062 6.05257812 4.8125 5.5625 C3.91144531 5.08941406 3.01039063 4.61632812 2.08203125 4.12890625 C1.39496094 3.75636719 0.70789063 3.38382813 0 3 C0 2.01 0 1.02 0 0 Z " fill="#171717" transform="translate(668,586)"/>
<path d="M0 0 C-0.99 0.33 -1.98 0.66 -3 1 C-2.34 1.66 -1.68 2.32 -1 3 C-10.01824887 4.06996173 -18.93664124 4.10234659 -28 4 C-28 3.67 -28 3.34 -28 3 C-24.08559007 2.29921164 -20.168211 1.61668646 -16.25 0.9375 C-14.58324219 0.63875977 -14.58324219 0.63875977 -12.8828125 0.33398438 C-11.81289063 0.15029297 -10.74296875 -0.03339844 -9.640625 -0.22265625 C-8.16384277 -0.48187866 -8.16384277 -0.48187866 -6.65722656 -0.74633789 C-4.09865957 -0.99058184 -2.41709608 -0.80486291 0 0 Z " fill="#434343" transform="translate(753,292)"/>
<path d="M0 0 C0.33 0 0.66 0 1 0 C1.11819618 7.08438356 0.65844024 14.01096097 0 21.0625 C-0.09539063 22.11888672 -0.19078125 23.17527344 -0.2890625 24.26367188 C-0.52246739 26.84279586 -0.75951743 29.42152799 -1 32 C-1.33 32 -1.66 32 -2 32 C-3.12982782 21.09868833 -3.52502041 10.57506122 0 0 Z " fill="#777777" transform="translate(619,459)"/>
<path d="M0 0 C5.61 0 11.22 0 17 0 C17 0.99 17 1.98 17 3 C15.23225581 3.53122363 13.46065917 4.04964073 11.6875 4.5625 C10.70136719 4.85253906 9.71523438 5.14257812 8.69921875 5.44140625 C6 6 6 6 3 5 C3.66 5 4.32 5 5 5 C5 4.01 5 3.02 5 2 C3.35 1.67 1.7 1.34 0 1 C0 0.67 0 0.34 0 0 Z " fill="#D0D0D0" transform="translate(752,285)"/>
<path d="M0 0 C0.33 0.66 0.66 1.32 1 2 C0.33333333 4 -0.33333333 6 -1 8 C-1.44084409 10.66423169 -1.72188815 13.31158543 -2 16 C-2.66 15.34 -3.32 14.68 -4 14 C-6.16666667 14.83333333 -6.16666667 14.83333333 -7 17 C-7.99 16.67 -8.98 16.34 -10 16 C-6.7 10.72 -3.4 5.44 0 0 Z " fill="#232323" transform="translate(192,524)"/>
<path d="M0 0 C0.99 0.33 1.98 0.66 3 1 C3 1.99 3 2.98 3 4 C3.99 4 4.98 4 6 4 C5.67 4.99 5.34 5.98 5 7 C1.7 7.66 -1.6 8.32 -5 9 C-3.7508258 5.54074837 -2.32472205 2.85306797 0 0 Z " fill="#141414" transform="translate(337,410)"/>
<path d="M0 0 C3.62590381 1.55636242 6.16858915 3.7792923 9.0625 6.4375 C10.34833984 7.61119141 10.34833984 7.61119141 11.66015625 8.80859375 C13.47596434 10.50920867 15.25843926 12.22417904 17 14 C16.34 14.66 15.68 15.32 15 16 C14.01 16 13.02 16 12 16 C10.859375 14.49609375 10.859375 14.49609375 9.75 12.4375 C7.42964487 8.44961137 4.71231176 5.48977582 1.35546875 2.34765625 C0.90816406 1.90292969 0.46085938 1.45820313 0 1 C0 0.67 0 0.34 0 0 Z " fill="#161616" transform="translate(566,503)"/>
<path d="M0 0 C1.80791016 0.00966797 1.80791016 0.00966797 3.65234375 0.01953125 C5.53373047 0.04466797 5.53373047 0.04466797 7.453125 0.0703125 C8.72285156 0.07933594 9.99257813 0.08835937 11.30078125 0.09765625 C14.43508593 0.12122245 17.56901041 0.15412418 20.703125 0.1953125 C20.703125 0.5253125 20.703125 0.8553125 20.703125 1.1953125 C16.743125 1.1953125 12.783125 1.1953125 8.703125 1.1953125 C8.703125 1.8553125 8.703125 2.5153125 8.703125 3.1953125 C2.433125 2.8653125 -3.836875 2.5353125 -10.296875 2.1953125 C-6.17173291 0.13274146 -4.47887362 -0.04225352 0 0 Z " fill="#3F3F3F" transform="translate(734.296875,317.8046875)"/>
<path d="M0 0 C4.95 0 9.9 0 15 0 C8.97321429 7.09821429 8.97321429 7.09821429 6 10 C5.01 9.67 4.02 9.34 3 9 C3.804375 8.38125 4.60875 7.7625 5.4375 7.125 C8.03874519 5.25835959 8.03874519 5.25835959 9 3 C4.545 2.01 4.545 2.01 0 1 C0 0.67 0 0.34 0 0 Z " fill="#EFEFEF" transform="translate(577,315)"/>
<path d="M0 0 C1.32 0.66 2.64 1.32 4 2 C2.6062718 6.43458973 0.39417765 8.87378374 -3 12 C-3.66 11.67 -4.32 11.34 -5 11 C-3.35 7.37 -1.7 3.74 0 0 Z " fill="#E5E5E5" transform="translate(149,544)"/>
<path d="M0 0 C2.61885488 2.36944013 4.41866551 4.83733102 6 8 C5.67 8.99 5.34 9.98 5 11 C2.03 9.02 -0.94 7.04 -4 5 C-2.68 3.35 -1.36 1.7 0 0 Z " fill="#E5E5E5" transform="translate(603,512)"/>
<path d="M0 0 C-0.50522222 4.37859255 -3.17827222 6.81651224 -6 10 C-7.32 9.34 -8.64 8.68 -10 8 C-9.04578192 6.85073734 -8.08647955 5.70569459 -7.125 4.5625 C-6.59132812 3.92441406 -6.05765625 3.28632813 -5.5078125 2.62890625 C-3.68057607 0.65492285 -2.70796331 0 0 0 Z " fill="#050505" transform="translate(172,507)"/>
<path d="M0 0 C1.231394 3.69418201 0.64432764 6.2056261 0 10 C-0.66 8.68 -1.32 7.36 -2 6 C-3.11375 7.11375 -3.11375 7.11375 -4.25 8.25 C-6.5 10.5 -8.75 12.75 -11 15 C-11.99 14.67 -12.98 14.34 -14 14 C-13.49210938 13.57589844 -12.98421875 13.15179687 -12.4609375 12.71484375 C-7.83373646 8.77219118 -3.84408054 4.70899866 0 0 Z " fill="#1C1C1C" transform="translate(178,536)"/>
<path d="M0 0 C0.66 0.66 1.32 1.32 2 2 C4.56916657 2.30599063 7.04758384 2.51087087 9.625 2.625 C10.68460938 2.68300781 10.68460938 2.68300781 11.765625 2.7421875 C13.50998524 2.83647724 15.25495691 2.91932891 17 3 C12.34386481 6.10409013 8.47026886 4.64356104 3 4 C2.67 8.62 2.34 13.24 2 18 C1.67 18 1.34 18 1 18 C0.67 12.06 0.34 6.12 0 0 Z " fill="#484848" transform="translate(580,332)"/>
<path d="M0 0 C1.4800841 0.11362262 2.95910074 0.24122908 4.4375 0.375 C5.26121094 0.44460938 6.08492187 0.51421875 6.93359375 0.5859375 C7.95646484 0.79089844 7.95646484 0.79089844 9 1 C9.33 1.66 9.66 2.32 10 3 C4.19233704 4.5056904 -0.9981863 5.21824777 -7 5 C-7 4.67 -7 4.34 -7 4 C-5.02 4 -3.04 4 -1 4 C-0.67 2.68 -0.34 1.36 0 0 Z " fill="#2B2B2B" transform="translate(142,322)"/>
<path d="M0 0 C0.66 0.99 1.32 1.98 2 3 C4.05925139 3.72382467 4.05925139 3.72382467 6 4 C5.34 4.66 4.68 5.32 4 6 C4 6.66 4 7.32 4 8 C-1.94 8 -7.88 8 -14 8 C-14.33 7.34 -14.66 6.68 -15 6 C-9.72 6.33 -4.44 6.66 1 7 C0.34 5.68 -0.32 4.36 -1 3 C-0.67 2.01 -0.34 1.02 0 0 Z " fill="#353535" transform="translate(217,578)"/>
<path d="M0 0 C-0.33 1.65 -0.66 3.3 -1 5 C-3.75 5.6875 -3.75 5.6875 -7 6 C-9.375 4.5625 -9.375 4.5625 -11 3 C-9.54293274 2.49632243 -8.08429904 1.99717444 -6.625 1.5 C-5.81289063 1.2215625 -5.00078125 0.943125 -4.1640625 0.65625 C-2 0 -2 0 0 0 Z " fill="#080808" transform="translate(760,290)"/>
<path d="M0 0 C2.46301423 2.46301423 2.76766521 4.27360036 3.625 7.625 C3.88539063 8.62789063 4.14578125 9.63078125 4.4140625 10.6640625 C4.60742188 11.43492187 4.80078125 12.20578125 5 13 C4.38125 12.814375 3.7625 12.62875 3.125 12.4375 C0.95839822 11.76313824 0.95839822 11.76313824 -1 13 C-0.67 8.71 -0.34 4.42 0 0 Z " fill="#303030" transform="translate(391,492)"/>
<path d="M0 0 C2.92824652 2.92824652 4.27239967 5.2979993 6 9 C4.68 9 3.36 9 2 9 C1.67 10.98 1.34 12.96 1 15 C0.34 14.67 -0.32 14.34 -1 14 C-0.67 9.38 -0.34 4.76 0 0 Z " fill="#393939" transform="translate(414,479)"/>
<path d="M0 0 C1.9375 0.75 1.9375 0.75 4 2 C4.75 4.125 4.75 4.125 5 6 C3.88625 6.309375 2.7725 6.61875 1.625 6.9375 C-1.7945155 7.82326483 -1.7945155 7.82326483 -4 9 C-2.94124926 5.59687262 -1.99097846 2.98646769 0 0 Z " fill="#121212" transform="translate(314,336)"/>
<path d="M0 0 C0.66 0 1.32 0 2 0 C2 0.66 2 1.32 2 2 C3.32 2.33 4.64 2.66 6 3 C5.19185349 4.33597652 4.37836819 5.668725 3.5625 7 C2.88380859 8.11375 2.88380859 8.11375 2.19140625 9.25 C1.79824219 9.8275 1.40507812 10.405 1 11 C0.67 11 0.34 11 0 11 C0 7.37 0 3.74 0 0 Z " fill="#E8E8E8" transform="translate(178,535)"/>
<path d="M0 0 C1.65 0 3.3 0 5 0 C5 3.63 5 7.26 5 11 C4.67 11 4.34 11 4 11 C3.67 8.36 3.34 5.72 3 3 C1.68 5.31 0.36 7.62 -1 10 C-2.46726798 6.18510326 -1.43336419 3.70988378 0 0 Z " fill="#484848" transform="translate(394,292)"/>
<path d="M0 0 C0.99 0.33 1.98 0.66 3 1 C1.25 6.75 1.25 6.75 -1 9 C-1 8.01 -1 7.02 -1 6 C-1.99 5.67 -2.98 5.34 -4 5 C-4 4.34 -4 3.68 -4 3 C-2.1875 1.3125 -2.1875 1.3125 0 0 Z " fill="#F7F7F7" transform="translate(159,532)"/>
<path d="M0 0 C0.33 0.66 0.66 1.32 1 2 C-0.24125182 4.61161731 -1.5310524 7.10501786 -2.9375 9.625 C-3.32357422 10.33140625 -3.70964844 11.0378125 -4.10742188 11.765625 C-5.06448696 13.51433651 -6.03134031 15.25768432 -7 17 C-7.66 16.67 -8.32 16.34 -9 16 C-7.56691865 12.04093183 -5.66858051 8.71281819 -3.375 5.1875 C-2.74335938 4.21167969 -2.11171875 3.23585938 -1.4609375 2.23046875 C-0.73777344 1.12638672 -0.73777344 1.12638672 0 0 Z " fill="#343434" transform="translate(187,479)"/>
<path d="M0 0 C0.33 1.32 0.66 2.64 1 4 C-1.64 3.67 -4.28 3.34 -7 3 C-7 2.01 -7 1.02 -7 0 C-4.3333581 -1.33332095 -2.83319697 -0.67102033 0 0 Z " fill="#F0F0F0" transform="translate(435,327)"/>
<path d="M0 0 C1 3 1 3 0.22265625 5.04296875 C-0.16019531 5.75066406 -0.54304688 6.45835937 -0.9375 7.1875 C-1.31777344 7.90292969 -1.69804687 8.61835938 -2.08984375 9.35546875 C-2.39019531 9.89816406 -2.69054687 10.44085938 -3 11 C-3.33 10.01 -3.66 9.02 -4 8 C-4.99 7.67 -5.98 7.34 -7 7 C-2.25 1.125 -2.25 1.125 0 0 Z " fill="#191919" transform="translate(266,487)"/>
<path d="M0 0 C1.40907283 2.81814566 0.50872691 4.17277204 -0.4375 7.125 C-0.72496094 8.03507812 -1.01242188 8.94515625 -1.30859375 9.8828125 C-1.65083984 10.93082031 -1.65083984 10.93082031 -2 12 C-3.4606285 9.35261084 -4 8.10551666 -4 5 C-4.99 4.67 -5.98 4.34 -7 4 C-4.69 2.68 -2.38 1.36 0 0 Z " fill="#E0E0E0" transform="translate(205,286)"/>
<path d="M0 0 C0.33 0.99 0.66 1.98 1 3 C1.66 3 2.32 3 3 3 C3 2.34 3 1.68 3 1 C3.99 1.33 4.98 1.66 6 2 C5.02471263 3.33617352 4.04466681 4.6688751 3.0625 6 C2.51722656 6.7425 1.97195312 7.485 1.41015625 8.25 C0.94480469 8.8275 0.47945312 9.405 0 10 C-0.33 10 -0.66 10 -1 10 C-0.67 6.7 -0.34 3.4 0 0 Z " fill="#262626" transform="translate(202,298)"/>
<path d="M0 0 C0.66 1.32 1.32 2.64 2 4 C1.34 4.66 0.68 5.32 0 6 C0.99 6.33 1.98 6.66 3 7 C3 7.66 3 8.32 3 9 C0.08482708 7.92598892 -1.77810176 7.22189824 -4 5 C-3.34 4.01 -2.68 3.02 -2 2 C-1.34 2 -0.68 2 0 2 C0 1.34 0 0.68 0 0 Z " fill="#F3F3F3" transform="translate(591,504)"/>
<path d="M0 0 C0.33 0.66 0.66 1.32 1 2 C1.66 2.33 2.32 2.66 3 3 C2.67 4.32 2.34 5.64 2 7 C-0.31 6.67 -2.62 6.34 -5 6 C-3.35 4.02 -1.7 2.04 0 0 Z " fill="#121011" transform="translate(564,381)"/>
<path d="M0 0 C0.33 0.66 0.66 1.32 1 2 C1.66 2.33 2.32 2.66 3 3 C2.60196439 5.88575819 2.20990931 6.82189513 -0.0625 8.75 C-1.0215625 9.36875 -1.0215625 9.36875 -2 10 C-1.125 2.25 -1.125 2.25 0 0 Z " fill="#EDEDED" transform="translate(256,512)"/>
<path d="M0 0 C2 3 2 3 1.75 6.625 C1.5025 7.73875 1.255 8.8525 1 10 C0.01 10.495 0.01 10.495 -1 11 C-1.66 11.99 -2.32 12.98 -3 14 C-2.40380045 9.13103697 -1.43023178 4.67209049 0 0 Z " fill="#323232" transform="translate(458,484)"/>
<path d="M0 0 C4 2 4 2 5 4 C4.01 4.66 3.02 5.32 2 6 C0.79549696 8.55183404 0.79549696 8.55183404 0 11 C-0.66 10.67 -1.32 10.34 -2 10 C-1.34 6.7 -0.68 3.4 0 0 Z " fill="#C7C7C7" transform="translate(305,266)"/>
<path d="M0 0 C0.66 0 1.32 0 2 0 C1.34 3.3 0.68 6.6 0 10 C-0.66 9.01 -1.32 8.02 -2 7 C-2.99 7.495 -2.99 7.495 -4 8 C-2.87548273 5.0280615 -1.77706209 2.66559313 0 0 Z " fill="#343434" transform="translate(266,507)"/>
<path d="M0 0 C0.66 0.33 1.32 0.66 2 1 C2 3.64 2 6.28 2 9 C-0.52588702 6.63707344 -1.88820837 5.33537489 -3 2 C-2.34 2 -1.68 2 -1 2 C-0.67 1.34 -0.34 0.68 0 0 Z " fill="#EFEFEF" transform="translate(419,479)"/>
<path d="M0 0 C0.66 0.33 1.32 0.66 2 1 C1.2884375 2.175625 1.2884375 2.175625 0.5625 3.375 C-0.33898023 4.88948678 -1.21179485 6.4235897 -2 8 C-3.32 7.34 -4.64 6.68 -6 6 C-4 4 -2 2 0 0 Z " fill="#EFEFEF" transform="translate(520,365)"/>
<path d="M0 0 C0.66 0.33 1.32 0.66 2 1 C2 3.64 2 6.28 2 9 C-0.0625 7.25 -0.0625 7.25 -2 5 C-1.80984746 2.78155374 -1.58477845 1.58477845 0 0 Z " fill="#2F2F2F" transform="translate(314,268)"/>
<path d="M0 0 C2.35953094 2.35953094 2.49141413 3.77895617 3 7 C-0.65316671 5.75023244 -1.78065836 5.32901247 -4 2 C-2.68 1.34 -1.36 0.68 0 0 Z " fill="#D4D4D4" transform="translate(590,516)"/>
<path d="M0 0 C0.99 0.33 1.98 0.66 3 1 C2.45276317 4.37462715 1.9451 6.08235 0 9 C-0.66 6.69 -1.32 4.38 -2 2 C-1.34 2 -0.68 2 0 2 C0 1.34 0 0.68 0 0 Z " fill="#E1E1E1" transform="translate(637,511)"/>
<path d="M0 0 C0.66 0.66 1.32 1.32 2 2 C1.5875 2.350625 1.175 2.70125 0.75 3.0625 C-1.70762407 5.78344094 -3.24051885 8.78439652 -5 12 C-5.66 11.67 -6.32 11.34 -7 11 C-4.69 7.37 -2.38 3.74 0 0 Z " fill="#272727" transform="translate(329,312)"/>
<path d="M0 0 C0 1.98 0 3.96 0 6 C-1.65 5.67 -3.3 5.34 -5 5 C-4.67 4.34 -4.34 3.68 -4 3 C-4.66 2.67 -5.32 2.34 -6 2 C-6 1.34 -6 0.68 -6 0 C-3 -1 -3 -1 0 0 Z " fill="#CDCDCD" transform="translate(167,309)"/>
<path d="M0 0 C-0.33 1.32 -0.66 2.64 -1 4 C-2.65 3.67 -4.3 3.34 -6 3 C-6 2.01 -6 1.02 -6 0 C-3.50907189 -1.24546405 -2.58919267 -0.7767578 0 0 Z " fill="#E0E0E0" transform="translate(427,299)"/>
<path d="M0 0 C1.32 0.33 2.64 0.66 4 1 C3.43628586 4.26954202 2.50037734 5.82575883 0 8 C0 5.36 0 2.72 0 0 Z " fill="#E7E7E7" transform="translate(190,532)"/>
<path d="M0 0 C3.45925163 1.2491742 6.14693203 2.67527795 9 5 C7.02 5.33 5.04 5.66 3 6 C0 2.25 0 2.25 0 0 Z " fill="#3A3A3A" transform="translate(587,510)"/>
<path d="M0 0 C0.66 0.66 1.32 1.32 2 2 C1.34 3.98 0.68 5.96 0 8 C-0.66 8 -1.32 8 -2 8 C-2.33 5.69 -2.66 3.38 -3 1 C-2.01 0.67 -1.02 0.34 0 0 Z " fill="#E9E9E9" transform="translate(452,499)"/>
<path d="M0 0 C2.475 0.495 2.475 0.495 5 1 C4.835 1.598125 4.67 2.19625 4.5 2.8125 C3.8885876 5.11344336 3.8885876 5.11344336 4 8 C1 6 1 6 0.3125 2.875 C0.209375 1.92625 0.10625 0.9775 0 0 Z " fill="#F4F4F4" transform="translate(549,491)"/>
<path d="M0 0 C0.66 0 1.32 0 2 0 C3.10844919 3.32534757 2.84454356 5.62182575 2 9 C1.01 9 0.02 9 -1 9 C-0.67 6.03 -0.34 3.06 0 0 Z " fill="#2D2D2D" transform="translate(475,424)"/>
<path d="M0 0 C-0.75 2.9375 -0.75 2.9375 -2 6 C-4.125 6.875 -4.125 6.875 -6 7 C-6 4 -6 4 -4.125 1.8125 C-2 0 -2 0 0 0 Z " fill="#E4E4E4" transform="translate(213,297)"/>
<path d="M0 0 C0.99 0.33 1.98 0.66 3 1 C3 1.99 3 2.98 3 4 C0.03 4 -2.94 4 -6 4 C-4.03617993 2.49440461 -2.21736634 1.10868317 0 0 Z " fill="#343434" transform="translate(749,282)"/>
<path d="M0 0 C3 0 3 0 5 1 C4.25 5.75 4.25 5.75 2 8 C1.34 5.36 0.68 2.72 0 0 Z " fill="#E5E5E5" transform="translate(622,507)"/>
<path d="M0 0 C2 2 2 2 2 5 C1.34 5 0.68 5 0 5 C0 5.66 0 6.32 0 7 C-0.99 7 -1.98 7 -3 7 C-3 7.66 -3 8.32 -3 9 C-3.66 8.67 -4.32 8.34 -5 8 C-3.35 5.36 -1.7 2.72 0 0 Z " fill="#181818" transform="translate(218,496)"/>
<path d="M0 0 C0.99 0.99 1.98 1.98 3 3 C3.66 3 4.32 3 5 3 C3.63016497 6.16115776 3.0109362 6.9927092 0 9 C0 6.03 0 3.06 0 0 Z " fill="#DBDBDB" transform="translate(258,486)"/>
<path d="M0 0 C2.31 0 4.62 0 7 0 C7 0.99 7 1.98 7 3 C5.1875 3.625 5.1875 3.625 3 4 C2.01 3.34 1.02 2.68 0 2 C0 1.34 0 0.68 0 0 Z " fill="#DBDBDB" transform="translate(575,305)"/>
<path d="M0 0 C1.65 0 3.3 0 5 0 C5.125 2.875 5.125 2.875 5 6 C4.34 6.66 3.68 7.32 3 8 C2.01 5.36 1.02 2.72 0 0 Z " fill="#0F0F0F" transform="translate(300,268)"/>
<path d="M0 0 C3.3 0.99 6.6 1.98 10 3 C9.01 3.33 8.02 3.66 7 4 C6.67 4.66 6.34 5.32 6 6 C2.26360784 4.75453595 1.81243487 3.36595047 0 0 Z " fill="#252525" transform="translate(596,501)"/>
<path d="M0 0 C2.97 0 5.94 0 9 0 C7.02 0.99 7.02 0.99 5 2 C4.67 2.66 4.34 3.32 4 4 C2.68 3.34 1.36 2.68 0 2 C0 1.34 0 0.68 0 0 Z " fill="#272727" transform="translate(668,586)"/>
<path d="M0 0 C3.94139078 1.66751148 6.7892812 4.22710649 10 7 C9.34 7.66 8.68 8.32 8 9 C6.66368764 7.6905332 5.33102075 6.37734515 4 5.0625 C3.2575 4.33160156 2.515 3.60070312 1.75 2.84765625 C0 1 0 1 0 0 Z " fill="#535353" transform="translate(566,503)"/>
<path d="M0 0 C1.32 1.32 2.64 2.64 4 4 C2.02 4.99 2.02 4.99 0 6 C-0.66 4.68 -1.32 3.36 -2 2 C-1.34 1.34 -0.68 0.68 0 0 Z " fill="#080808" transform="translate(507,456)"/>
<path d="M0 0 C3.875 1.75 3.875 1.75 5 4 C4.34 4 3.68 4 3 4 C2.67 4.66 2.34 5.32 2 6 C1.01 5.01 0.02 4.02 -1 3 C-0.67 2.01 -0.34 1.02 0 0 Z M-1 4 C1 5 1 5 1 5 Z " fill="#EFEFEF" transform="translate(554,441)"/>
<path d="M0 0 C0.66 0.33 1.32 0.66 2 1 C1.3125 2.9375 1.3125 2.9375 0 5 C-2.625 5.75 -2.625 5.75 -5 6 C-3.63016497 2.83884224 -3.0109362 2.0072908 0 0 Z " fill="#E1E1E1" transform="translate(431,403)"/>
<path d="M0 0 C0.99 0.33 1.98 0.66 3 1 C1.68 3.31 0.36 5.62 -1 8 C-1.33 8 -1.66 8 -2 8 C-2.125 5.125 -2.125 5.125 -2 2 C-1.34 1.34 -0.68 0.68 0 0 Z " fill="#272727" transform="translate(203,576)"/>
<path d="M0 0 C1 3 1 3 0.0625 5.1875 C-0.4634375 6.0846875 -0.4634375 6.0846875 -1 7 C-2.32 6.67 -3.64 6.34 -5 6 C-3.35 4.02 -1.7 2.04 0 0 Z " fill="#DAD8D9" transform="translate(170,511)"/>
<path d="M0 0 C1.9375 0.3125 1.9375 0.3125 4 1 C5 4 5 4 4 7 C3.34 7 2.68 7 2 7 C1.34 4.69 0.68 2.38 0 0 Z " fill="#DFDFDF" transform="translate(386,499)"/>
<path d="M0 0 C1.32 1.65 2.64 3.3 4 5 C2.35 5.33 0.7 5.66 -1 6 C-1.33 5.01 -1.66 4.02 -2 3 C-1.34 2.01 -0.68 1.02 0 0 Z " fill="#0E0E0E" transform="translate(522,471)"/>
<path d="M0 0 C2.125 0.375 2.125 0.375 4 1 C3.67 1.99 3.34 2.98 3 4 C0.9375 4.6875 0.9375 4.6875 -1 5 C-1.33 4.01 -1.66 3.02 -2 2 C-1.34 1.34 -0.68 0.68 0 0 Z " fill="#EFEFEF" transform="translate(746,322)"/>
<path d="M0 0 C1 3 1 3 1 6 C-0.65 6.66 -2.3 7.32 -4 8 C-2.87548273 5.0280615 -1.77706209 2.66559313 0 0 Z " fill="#DEDEDE" transform="translate(347,312)"/>
<path d="M0 0 C0.66 0.33 1.32 0.66 2 1 C1.67 1.66 1.34 2.32 1 3 C-0.32 3 -1.64 3 -3 3 C-3 3.66 -3 4.32 -3 5 C-4.32 4.34 -5.64 3.68 -7 3 C-4.69631264 1.93347808 -2.35981813 0.93578995 0 0 Z " fill="#1F1F1F" transform="translate(764,304)"/>
<path d="M0 0 C-3.3146667 2.02907167 -5.4315979 2.12742133 -9.25 1.625 C-10.14203125 1.51414062 -11.0340625 1.40328125 -11.953125 1.2890625 C-12.62859375 1.19367187 -13.3040625 1.09828125 -14 1 C-14 0.67 -14 0.34 -14 0 C-12.41773035 -0.19627391 -10.83410729 -0.38165538 -9.25 -0.5625 C-8.36828125 -0.66691406 -7.4865625 -0.77132812 -6.578125 -0.87890625 C-4.11567549 -0.99456676 -2.33461936 -0.73638695 0 0 Z " fill="#C9C9C9" transform="translate(364,572)"/>
<path d="M0 0 C0.33 0.99 0.66 1.98 1 3 C1.66 3.33 2.32 3.66 3 4 C2.01 4.66 1.02 5.32 0 6 C-0.99 5.01 -1.98 4.02 -3 3 C-2.01 2.01 -1.02 1.02 0 0 Z " fill="#191718" transform="translate(165,511)"/>
<path d="M0 0 C0 0.66 0 1.32 0 2 C-0.99 2.66 -1.98 3.32 -3 4 C-3.66 4.66 -4.32 5.32 -5 6 C-5.66 4.68 -6.32 3.36 -7 2 C-2.25 0 -2.25 0 0 0 Z " fill="#272727" transform="translate(531,405)"/>
<path d="M0 0 C0 3 0 3 -1.5 4.6875 C-1.995 5.120625 -2.49 5.55375 -3 6 C-3.99 5.01 -4.98 4.02 -6 3 C-4.02 2.01 -2.04 1.02 0 0 Z " fill="#E5E5E5" transform="translate(178,301)"/>
<path d="M0 0 C1.98 0.99 1.98 0.99 4 2 C2.68 2 1.36 2 0 2 C0 1.34 0 0.68 0 0 Z M-1 2 C-0.34 2.66 0.32 3.32 1 4 C0.01 4.99 -0.98 5.98 -2 7 C-2.66 6.67 -3.32 6.34 -4 6 C-3.01 4.68 -2.02 3.36 -1 2 Z " fill="#DCDCDC" transform="translate(364,296)"/>
<path d="M0 0 C1 3 1 3 0 6 C-2.475 5.01 -2.475 5.01 -5 4 C-3.35 2.68 -1.7 1.36 0 0 Z " fill="#E0E0E0" transform="translate(396,284)"/>
</svg>
